%TF.GenerationSoftware,KiCad,Pcbnew,10.0.4*%
%TF.CreationDate,2026-07-16T01:24:09+03:00*%
%TF.ProjectId,Summer_project,53756d6d-6572-45f7-9072-6f6a6563742e,rev?*%
%TF.SameCoordinates,Original*%
%TF.FileFunction,Profile,NP*%
%FSLAX46Y46*%
G04 Gerber Fmt 4.6, Leading zero omitted, Abs format (unit mm)*
G04 Created by KiCad (PCBNEW 10.0.4) date 2026-07-16 01:24:09*
%MOMM*%
%LPD*%
G01*
G04 APERTURE LIST*
%TA.AperFunction,Profile*%
%ADD10C,0.050000*%
%TD*%
G04 APERTURE END LIST*
D10*
X100617099Y-50000000D02*
G75*
G02*
X108257909Y-49815779I3882901J-2500000D01*
G01*
X100617099Y-107218801D02*
X100617099Y-50000000D01*
X108257909Y-49815781D02*
G75*
G02*
X115000000Y-46681489I6742091J-5684219D01*
G01*
X108500000Y-99500000D02*
X108500000Y-107000000D01*
X108500000Y-107000000D02*
G75*
G02*
X100617099Y-107218801I-4000000J2000000D01*
G01*
X110000000Y-117410771D02*
G75*
G02*
X120039259Y-106196294I12500000J-1089229D01*
G01*
X110000000Y-126500000D02*
X110000000Y-117410771D01*
X110000000Y-134000000D02*
X110000000Y-126500000D01*
X110377072Y-101292817D02*
X108500000Y-99500000D01*
X114000000Y-103090008D02*
G75*
G02*
X110377072Y-101292817I2500000J9590008D01*
G01*
X115000000Y-46681489D02*
X137000000Y-46681489D01*
X122228784Y-103090008D02*
X114000000Y-103090008D01*
X122228784Y-103090008D02*
G75*
G02*
X120039261Y-106196294I-11228784J5590008D01*
G01*
X137000000Y-46681489D02*
X138000000Y-46681489D01*
X138000000Y-46681489D02*
G75*
G02*
X142500000Y-43310813I4500000J-1318511D01*
G01*
X142500000Y-43310814D02*
X156000000Y-43310813D01*
X156000000Y-43314672D02*
G75*
G02*
X160064108Y-46500000I0J-4185328D01*
G01*
X160064108Y-46500000D02*
X183000000Y-46500000D01*
X178857255Y-105921707D02*
G75*
G02*
X174193778Y-101886013I3642745J8921707D01*
G01*
X178857255Y-105921707D02*
G75*
G02*
X188213852Y-117321537I-7357255J-15578293D01*
G01*
X183000000Y-46500000D02*
G75*
G02*
X189255755Y-50312446I-1500000J-9500000D01*
G01*
X184000000Y-101858328D02*
X174193778Y-101886013D01*
X188213853Y-117321543D02*
X188213853Y-126500000D01*
X188213853Y-126500000D02*
X188213853Y-134000000D01*
X188213853Y-134000000D02*
X110000000Y-134000000D01*
X188957277Y-99461161D02*
G75*
G02*
X184000000Y-101858328I-5457277J4961161D01*
G01*
X189000000Y-101500000D02*
X188957277Y-99461161D01*
X189122539Y-105000000D02*
X189000000Y-101500000D01*
X189255755Y-50312446D02*
G75*
G02*
X197493488Y-51502894I3744245J-3187554D01*
G01*
X197500000Y-52500000D02*
X197493488Y-51502894D01*
X197500000Y-53000000D02*
X197500000Y-52500000D01*
X197500000Y-53000000D02*
X197877461Y-105000000D01*
X197877461Y-105000000D02*
G75*
G02*
X189122539Y-105000000I-4377461J0D01*
G01*
M02*
