%TF.GenerationSoftware,KiCad,Pcbnew,10.0.4*%
%TF.CreationDate,2026-07-16T01:24:09+03:00*%
%TF.ProjectId,Summer_project,53756d6d-6572-45f7-9072-6f6a6563742e,rev?*%
%TF.SameCoordinates,Original*%
%TF.FileFunction,Copper,L2,Bot*%
%TF.FilePolarity,Positive*%
%FSLAX46Y46*%
G04 Gerber Fmt 4.6, Leading zero omitted, Abs format (unit mm)*
G04 Created by KiCad (PCBNEW 10.0.4) date 2026-07-16 01:24:09*
%MOMM*%
%LPD*%
G01*
G04 APERTURE LIST*
G04 Aperture macros list*
%AMRoundRect*
0 Rectangle with rounded corners*
0 $1 Rounding radius*
0 $2 $3 $4 $5 $6 $7 $8 $9 X,Y pos of 4 corners*
0 Add a 4 corners polygon primitive as box body*
4,1,4,$2,$3,$4,$5,$6,$7,$8,$9,$2,$3,0*
0 Add four circle primitives for the rounded corners*
1,1,$1+$1,$2,$3*
1,1,$1+$1,$4,$5*
1,1,$1+$1,$6,$7*
1,1,$1+$1,$8,$9*
0 Add four rect primitives between the rounded corners*
20,1,$1+$1,$2,$3,$4,$5,0*
20,1,$1+$1,$4,$5,$6,$7,0*
20,1,$1+$1,$6,$7,$8,$9,0*
20,1,$1+$1,$8,$9,$2,$3,0*%
G04 Aperture macros list end*
%TA.AperFunction,ComponentPad*%
%ADD10R,1.800000X1.800000*%
%TD*%
%TA.AperFunction,ComponentPad*%
%ADD11C,1.800000*%
%TD*%
%TA.AperFunction,ComponentPad*%
%ADD12C,1.600000*%
%TD*%
%TA.AperFunction,ComponentPad*%
%ADD13C,2.000000*%
%TD*%
%TA.AperFunction,ComponentPad*%
%ADD14C,7.500000*%
%TD*%
%TA.AperFunction,ComponentPad*%
%ADD15RoundRect,0.250000X-0.550000X-0.550000X0.550000X-0.550000X0.550000X0.550000X-0.550000X0.550000X0*%
%TD*%
%TA.AperFunction,ComponentPad*%
%ADD16R,1.050000X1.500000*%
%TD*%
%TA.AperFunction,ComponentPad*%
%ADD17O,1.050000X1.500000*%
%TD*%
%TA.AperFunction,ComponentPad*%
%ADD18C,2.600000*%
%TD*%
%TA.AperFunction,SMDPad,CuDef*%
%ADD19C,17.900000*%
%TD*%
%TA.AperFunction,ComponentPad*%
%ADD20RoundRect,0.250000X0.550000X0.550000X-0.550000X0.550000X-0.550000X-0.550000X0.550000X-0.550000X0*%
%TD*%
%TA.AperFunction,Conductor*%
%ADD21C,0.250000*%
%TD*%
G04 APERTURE END LIST*
D10*
%TO.P,D2,1,K_1*%
%TO.N,Net-(D2-K)*%
X133270000Y-59500000D03*
D11*
%TO.P,D2,2,A_2*%
%TO.N,Net-(D2-A)*%
X135810000Y-59500000D03*
%TD*%
D12*
%TO.P,R3,1*%
%TO.N,Net-(D3-A)*%
X149500000Y-83190000D03*
%TO.P,R3,2*%
%TO.N,Net-(R1-Pad1)*%
X149500000Y-90810000D03*
%TD*%
%TO.P,R2,1*%
%TO.N,Net-(D2-A)*%
X141500000Y-83190000D03*
%TO.P,R2,2*%
%TO.N,Net-(R1-Pad1)*%
X141500000Y-90810000D03*
%TD*%
D13*
%TO.P,SW1,1,1_1*%
%TO.N,Net-(BT1-+)*%
X152750000Y-103750000D03*
X146250000Y-103750000D03*
%TO.P,SW1,2,2_2*%
%TO.N,Net-(R1-Pad1)*%
X152750000Y-99250000D03*
X146250000Y-99250000D03*
%TD*%
D12*
%TO.P,R4,1*%
%TO.N,Net-(Q3-B)*%
X133500000Y-83190000D03*
%TO.P,R4,2*%
%TO.N,Net-(R1-Pad1)*%
X133500000Y-90810000D03*
%TD*%
D10*
%TO.P,D3,1,K_1*%
%TO.N,Net-(D3-K)*%
X162230000Y-59500000D03*
D11*
%TO.P,D3,2,A_2*%
%TO.N,Net-(D3-A)*%
X164770000Y-59500000D03*
%TD*%
D14*
%TO.P,REF\u002A\u002A,1*%
%TO.N,N/C*%
X149500000Y-49000000D03*
%TD*%
D12*
%TO.P,R1,1*%
%TO.N,Net-(R1-Pad1)*%
X165500000Y-90810000D03*
%TO.P,R1,2*%
%TO.N,Net-(D1-A)*%
X165500000Y-83190000D03*
%TD*%
%TO.P,R5,1*%
%TO.N,Net-(Q4-B)*%
X157500000Y-83190000D03*
%TO.P,R5,2*%
%TO.N,Net-(R1-Pad1)*%
X157500000Y-90810000D03*
%TD*%
D10*
%TO.P,D1,1,K_1*%
%TO.N,GND*%
X147960000Y-72000000D03*
D11*
%TO.P,D1,2,A_2*%
%TO.N,Net-(D1-A)*%
X150500000Y-72000000D03*
%TD*%
D15*
%TO.P,C2,1*%
%TO.N,Net-(D2-K)*%
X148500000Y-79500000D03*
D12*
%TO.P,C2,2*%
%TO.N,Net-(Q4-B)*%
X150500000Y-79500000D03*
%TD*%
D16*
%TO.P,Q4,1,E_1*%
%TO.N,GND*%
X161960000Y-72000000D03*
D17*
%TO.P,Q4,2,B_2*%
%TO.N,Net-(Q4-B)*%
X163230000Y-72000000D03*
%TO.P,Q4,3,C_3*%
%TO.N,Net-(D3-K)*%
X164500000Y-72000000D03*
%TD*%
D18*
%TO.P,BT1,1,+_1*%
%TO.N,Net-(BT1-+)*%
X160050000Y-115500000D03*
X138950000Y-115500000D03*
D19*
%TO.P,BT1,2,-_2*%
%TO.N,GND*%
X149500000Y-115500000D03*
%TD*%
D16*
%TO.P,Q3,1,E_1*%
%TO.N,GND*%
X133960000Y-72000000D03*
D17*
%TO.P,Q3,2,B_2*%
%TO.N,Net-(Q3-B)*%
X135230000Y-72000000D03*
%TO.P,Q3,3,C_3*%
%TO.N,Net-(D2-K)*%
X136500000Y-72000000D03*
%TD*%
D20*
%TO.P,C1,1*%
%TO.N,Net-(D3-K)*%
X150500000Y-63000000D03*
D12*
%TO.P,C1,2*%
%TO.N,Net-(Q3-B)*%
X148500000Y-63000000D03*
%TD*%
%TO.N,Net-(D2-K)*%
D21*
X136500000Y-72000000D02*
X136500000Y-71500000D01*
%TO.N,Net-(Q3-B)*%
X135230000Y-71775000D02*
X135230000Y-72000000D01*
X135230000Y-72000000D02*
X135230000Y-72655000D01*
%TD*%
%TA.AperFunction,Conductor*%
%TO.N,GND*%
G36*
X155906058Y-43811665D02*
G01*
X155908485Y-43811418D01*
X155922206Y-43811983D01*
X155934108Y-43815172D01*
X155999615Y-43815172D01*
X156002164Y-43815277D01*
X156002948Y-43815312D01*
X156343526Y-43831496D01*
X156355237Y-43832611D01*
X156689851Y-43880602D01*
X156701376Y-43882817D01*
X157029943Y-43962323D01*
X157041235Y-43965631D01*
X157360759Y-44075928D01*
X157371680Y-44080288D01*
X157399772Y-44093082D01*
X157679297Y-44220383D01*
X157689766Y-44225764D01*
X157982726Y-44394404D01*
X157992638Y-44400755D01*
X158268269Y-44596402D01*
X158277533Y-44603663D01*
X158533384Y-44824575D01*
X158541910Y-44832674D01*
X158602477Y-44895943D01*
X158775664Y-45076859D01*
X158783390Y-45085738D01*
X158992926Y-45350971D01*
X158999777Y-45360545D01*
X159183219Y-45644457D01*
X159189131Y-45654635D01*
X159344829Y-45954668D01*
X159349749Y-45965363D01*
X159476289Y-46278794D01*
X159480173Y-46289906D01*
X159576513Y-46614233D01*
X159577420Y-46617446D01*
X159579008Y-46623372D01*
X159579642Y-46625838D01*
X159593848Y-46683571D01*
X159595473Y-46687732D01*
X159595540Y-46687935D01*
X159595989Y-46689019D01*
X159595989Y-46689020D01*
X159595997Y-46689037D01*
X159597716Y-46693188D01*
X159627456Y-46744699D01*
X159628706Y-46746916D01*
X159657382Y-46799026D01*
X159660018Y-46802612D01*
X159660760Y-46803621D01*
X159660895Y-46803778D01*
X159663610Y-46807317D01*
X159705638Y-46849344D01*
X159707420Y-46851162D01*
X159748635Y-46894105D01*
X159748639Y-46894107D01*
X159752102Y-46896880D01*
X159753090Y-46897670D01*
X159753246Y-46897777D01*
X159756789Y-46900495D01*
X159756794Y-46900500D01*
X159782104Y-46915112D01*
X159808291Y-46930232D01*
X159810483Y-46931528D01*
X159861381Y-46962325D01*
X159865448Y-46964108D01*
X159865449Y-46964108D01*
X159866618Y-46964620D01*
X159866800Y-46964684D01*
X159870916Y-46966389D01*
X159870922Y-46966392D01*
X159929591Y-46982112D01*
X159987953Y-46999042D01*
X159993174Y-46999149D01*
X159998216Y-47000500D01*
X160057663Y-47000500D01*
X160060209Y-47000526D01*
X160119707Y-47001748D01*
X160119707Y-47001747D01*
X160119709Y-47001748D01*
X160119710Y-47001747D01*
X160124155Y-47001255D01*
X160137818Y-47000500D01*
X182942766Y-47000500D01*
X182965777Y-47002654D01*
X183102670Y-47028507D01*
X183456736Y-47095374D01*
X183463965Y-47096966D01*
X183988163Y-47229012D01*
X183995278Y-47231034D01*
X184510583Y-47394329D01*
X184517576Y-47396779D01*
X185022113Y-47590726D01*
X185028972Y-47593602D01*
X185439657Y-47780513D01*
X185520926Y-47817500D01*
X185527613Y-47820789D01*
X186005238Y-48073841D01*
X186011716Y-48077527D01*
X186057344Y-48105334D01*
X186473266Y-48358809D01*
X186479495Y-48362866D01*
X186923323Y-48671376D01*
X186929305Y-48675806D01*
X187353807Y-49010427D01*
X187359499Y-49015198D01*
X187570111Y-49202793D01*
X187763118Y-49374707D01*
X187768532Y-49379829D01*
X188149825Y-49762935D01*
X188154921Y-49768373D01*
X188512505Y-50173686D01*
X188517252Y-50179403D01*
X188847720Y-50602750D01*
X188849796Y-50605489D01*
X188850951Y-50607058D01*
X188881142Y-50650835D01*
X188886652Y-50655526D01*
X188891034Y-50661475D01*
X188891117Y-50661561D01*
X188935441Y-50697130D01*
X188935443Y-50697131D01*
X188936855Y-50698264D01*
X188981488Y-50736262D01*
X188988145Y-50739423D01*
X188993889Y-50744033D01*
X188993891Y-50744034D01*
X188993897Y-50744039D01*
X189045937Y-50766933D01*
X189049160Y-50768407D01*
X189100525Y-50792806D01*
X189102128Y-50793100D01*
X189107778Y-50794138D01*
X189114525Y-50797107D01*
X189172476Y-50806022D01*
X189230140Y-50816615D01*
X189230142Y-50816614D01*
X189230143Y-50816615D01*
X189237446Y-50816986D01*
X189244772Y-50817146D01*
X189244774Y-50817145D01*
X189244776Y-50817146D01*
X189303065Y-50810758D01*
X189361502Y-50806065D01*
X189368446Y-50803593D01*
X189375776Y-50802790D01*
X189430426Y-50781533D01*
X189485656Y-50761876D01*
X189491724Y-50757691D01*
X189498597Y-50755018D01*
X189545887Y-50720338D01*
X189594144Y-50687059D01*
X189598922Y-50681446D01*
X189604868Y-50677086D01*
X189635896Y-50638418D01*
X189641928Y-50631452D01*
X189909404Y-50344987D01*
X189917502Y-50337074D01*
X190211401Y-50075148D01*
X190220203Y-50068001D01*
X190536847Y-49834107D01*
X190546264Y-49827797D01*
X190883014Y-49623886D01*
X190892984Y-49618458D01*
X191246980Y-49446260D01*
X191257403Y-49441769D01*
X191625679Y-49302724D01*
X191636475Y-49299204D01*
X192015952Y-49194476D01*
X192027021Y-49191962D01*
X192414485Y-49122437D01*
X192425743Y-49120946D01*
X192817958Y-49087206D01*
X192829288Y-49086753D01*
X193222945Y-49089084D01*
X193234289Y-49089672D01*
X193626061Y-49128052D01*
X193637287Y-49129673D01*
X194023906Y-49203781D01*
X194034959Y-49206430D01*
X194413171Y-49315644D01*
X194423909Y-49319286D01*
X194790514Y-49462682D01*
X194800897Y-49467302D01*
X195102495Y-49618454D01*
X195152814Y-49643672D01*
X195162734Y-49649226D01*
X195196469Y-49670204D01*
X195497017Y-49857092D01*
X195506388Y-49863533D01*
X195820223Y-50101145D01*
X195828964Y-50108417D01*
X195927754Y-50198580D01*
X196054558Y-50314312D01*
X196119713Y-50373777D01*
X196127752Y-50381820D01*
X196392964Y-50672693D01*
X196400232Y-50681437D01*
X196637696Y-50995396D01*
X196644132Y-51004770D01*
X196851830Y-51339150D01*
X196857380Y-51349074D01*
X196980826Y-51595693D01*
X196993939Y-51650387D01*
X196999497Y-52501177D01*
X196999500Y-52501987D01*
X196999500Y-52935955D01*
X196999035Y-52937743D01*
X196999500Y-53001802D01*
X196999500Y-53069385D01*
X197000047Y-53077304D01*
X197376923Y-104996746D01*
X197376777Y-105003731D01*
X197358590Y-105373926D01*
X197357397Y-105386036D01*
X197303359Y-105750331D01*
X197300985Y-105762265D01*
X197211500Y-106119510D01*
X197207968Y-106131155D01*
X197083897Y-106477913D01*
X197079240Y-106489156D01*
X196921776Y-106822084D01*
X196916039Y-106832816D01*
X196726709Y-107148694D01*
X196719949Y-107158812D01*
X196500556Y-107454629D01*
X196492836Y-107464035D01*
X196245516Y-107736911D01*
X196236911Y-107745516D01*
X195964035Y-107992836D01*
X195954629Y-108000556D01*
X195658812Y-108219949D01*
X195648694Y-108226709D01*
X195332816Y-108416039D01*
X195322084Y-108421776D01*
X194989156Y-108579240D01*
X194977913Y-108583897D01*
X194631155Y-108707968D01*
X194619510Y-108711500D01*
X194262265Y-108800985D01*
X194250331Y-108803359D01*
X193886037Y-108857397D01*
X193873927Y-108858590D01*
X193506085Y-108876662D01*
X193493915Y-108876662D01*
X193126072Y-108858590D01*
X193113962Y-108857397D01*
X192749668Y-108803359D01*
X192737734Y-108800985D01*
X192380489Y-108711500D01*
X192368844Y-108707968D01*
X192022086Y-108583897D01*
X192010843Y-108579240D01*
X191677915Y-108421776D01*
X191667183Y-108416039D01*
X191351305Y-108226709D01*
X191341187Y-108219949D01*
X191045370Y-108000556D01*
X191035964Y-107992836D01*
X190916997Y-107885011D01*
X190763081Y-107745509D01*
X190754490Y-107736918D01*
X190507163Y-107464035D01*
X190499443Y-107454629D01*
X190369256Y-107279092D01*
X190280048Y-107158809D01*
X190273290Y-107148694D01*
X190247423Y-107105538D01*
X190083958Y-106832813D01*
X190078223Y-106822084D01*
X189920754Y-106489145D01*
X189916106Y-106477924D01*
X189792029Y-106131149D01*
X189788499Y-106119510D01*
X189772788Y-106056790D01*
X189745501Y-105947851D01*
X189699014Y-105762265D01*
X189696640Y-105750331D01*
X189644569Y-105399296D01*
X189642601Y-105386033D01*
X189641409Y-105373927D01*
X189641409Y-105373926D01*
X189624140Y-105022433D01*
X189624076Y-105020908D01*
X189623115Y-104993410D01*
X189623039Y-104989079D01*
X189623039Y-104934109D01*
X189621977Y-104926045D01*
X189622424Y-104925986D01*
X189620242Y-104911404D01*
X189500347Y-101486893D01*
X189500299Y-101485176D01*
X189500210Y-101480944D01*
X189458906Y-99509786D01*
X189460345Y-99503172D01*
X189457527Y-99444004D01*
X189456287Y-99384798D01*
X189456286Y-99384794D01*
X189455265Y-99378123D01*
X189454077Y-99371538D01*
X189436537Y-99316664D01*
X189436537Y-99316663D01*
X189436035Y-99315095D01*
X189419519Y-99258246D01*
X189416012Y-99252456D01*
X189413952Y-99246010D01*
X189413949Y-99246006D01*
X189413949Y-99246004D01*
X189382819Y-99197564D01*
X189382818Y-99197562D01*
X189381916Y-99196158D01*
X189351251Y-99145524D01*
X189346370Y-99140844D01*
X189342712Y-99135151D01*
X189342705Y-99135144D01*
X189300098Y-99096410D01*
X189298876Y-99095299D01*
X189256133Y-99054311D01*
X189250203Y-99051051D01*
X189245194Y-99046497D01*
X189245192Y-99046495D01*
X189193997Y-99020101D01*
X189193997Y-99020100D01*
X189192491Y-99019324D01*
X189140650Y-98990824D01*
X189134079Y-98989210D01*
X189128066Y-98986110D01*
X189128052Y-98986105D01*
X189071810Y-98973869D01*
X189068597Y-98973125D01*
X189012674Y-98959390D01*
X189005981Y-98958651D01*
X188999288Y-98958093D01*
X188999287Y-98958093D01*
X188941770Y-98960830D01*
X188941771Y-98960831D01*
X188940105Y-98960910D01*
X188880914Y-98962151D01*
X188874415Y-98964038D01*
X188867653Y-98964361D01*
X188867650Y-98964361D01*
X188867648Y-98964362D01*
X188812821Y-98981887D01*
X188809666Y-98982849D01*
X188754367Y-98998916D01*
X188754359Y-98998919D01*
X188748567Y-99002426D01*
X188742126Y-99004486D01*
X188692360Y-99036466D01*
X188690904Y-99037349D01*
X188690893Y-99037357D01*
X188641640Y-99067186D01*
X188636952Y-99072073D01*
X188631261Y-99075732D01*
X188591439Y-99119534D01*
X188590284Y-99120739D01*
X188590278Y-99120746D01*
X188572100Y-99139703D01*
X188571396Y-99140431D01*
X188256244Y-99463759D01*
X188250014Y-99469722D01*
X187899735Y-99782339D01*
X187893105Y-99787853D01*
X187521977Y-100075345D01*
X187514980Y-100080386D01*
X187124752Y-100341399D01*
X187117422Y-100345941D01*
X186710005Y-100579197D01*
X186702377Y-100583219D01*
X186279727Y-100787598D01*
X186271838Y-100791080D01*
X185835999Y-100965592D01*
X185827886Y-100968517D01*
X185380986Y-101112311D01*
X185372691Y-101114665D01*
X184916869Y-101227054D01*
X184908429Y-101228826D01*
X184445915Y-101309259D01*
X184437373Y-101310441D01*
X183982784Y-101357257D01*
X183970431Y-101357909D01*
X174266094Y-101385306D01*
X174266093Y-101385306D01*
X174256906Y-101385331D01*
X174255601Y-101384994D01*
X174191170Y-101385516D01*
X174190785Y-101385518D01*
X174190781Y-101385517D01*
X174126417Y-101385700D01*
X174125402Y-101385843D01*
X174125396Y-101385844D01*
X174123827Y-101386063D01*
X174062051Y-101403154D01*
X174061422Y-101403326D01*
X173999276Y-101420167D01*
X173997749Y-101420805D01*
X173997747Y-101420805D01*
X173996859Y-101421175D01*
X173941337Y-101453833D01*
X173941338Y-101453834D01*
X173941060Y-101453997D01*
X173885335Y-101486382D01*
X173884383Y-101487338D01*
X173883218Y-101488024D01*
X173838113Y-101533866D01*
X173838114Y-101533867D01*
X173837887Y-101534098D01*
X173792412Y-101579831D01*
X173791741Y-101581000D01*
X173790794Y-101581963D01*
X173790792Y-101581965D01*
X173790791Y-101581967D01*
X173774760Y-101610262D01*
X173759166Y-101637786D01*
X173758916Y-101638224D01*
X173726841Y-101694144D01*
X173726242Y-101695601D01*
X173725848Y-101696557D01*
X173709736Y-101758703D01*
X173709570Y-101759335D01*
X173693092Y-101821534D01*
X173692873Y-101823235D01*
X173692758Y-101824125D01*
X173693279Y-101888353D01*
X173693282Y-101889004D01*
X173693465Y-101953317D01*
X173693696Y-101955027D01*
X173693698Y-101955042D01*
X173693816Y-101955920D01*
X173710932Y-102017783D01*
X173711106Y-102018417D01*
X173727934Y-102080521D01*
X173728506Y-102081890D01*
X173728532Y-102081952D01*
X173728940Y-102082929D01*
X173761530Y-102138332D01*
X173761861Y-102138899D01*
X173796499Y-102198503D01*
X173799758Y-102203325D01*
X173914602Y-102398570D01*
X173914626Y-102398609D01*
X174249165Y-102897233D01*
X174249176Y-102897248D01*
X174249181Y-102897255D01*
X174384019Y-103074565D01*
X174612675Y-103375245D01*
X174612677Y-103375247D01*
X174612682Y-103375253D01*
X175003837Y-103830898D01*
X175421273Y-104262593D01*
X175863529Y-104668825D01*
X175956570Y-104744642D01*
X176329046Y-105048166D01*
X176351076Y-105064044D01*
X176816212Y-105399296D01*
X177323299Y-105720974D01*
X177323307Y-105720978D01*
X177323308Y-105720979D01*
X177848520Y-106012068D01*
X177848541Y-106012079D01*
X178143289Y-106153319D01*
X178390082Y-106271580D01*
X178471906Y-106304986D01*
X178647464Y-106376661D01*
X178656141Y-106380599D01*
X179284455Y-106695427D01*
X179337163Y-106721837D01*
X179342255Y-106724539D01*
X179520684Y-106824593D01*
X180016455Y-107102598D01*
X180021422Y-107105538D01*
X180677301Y-107514566D01*
X180682097Y-107517714D01*
X181318257Y-107956845D01*
X181322889Y-107960205D01*
X181937937Y-108428476D01*
X181942403Y-108432045D01*
X182534969Y-108928419D01*
X182539306Y-108932227D01*
X182634439Y-109019765D01*
X183108105Y-109455619D01*
X183112240Y-109459606D01*
X183285605Y-109634715D01*
X183656060Y-110008900D01*
X183660025Y-110013095D01*
X184177708Y-110587120D01*
X184181470Y-110591492D01*
X184283150Y-110715377D01*
X184671851Y-111188961D01*
X184675409Y-111193507D01*
X185137470Y-111813174D01*
X185140812Y-111817881D01*
X185573526Y-112458369D01*
X185576645Y-112463226D01*
X185979076Y-113123153D01*
X185981966Y-113128151D01*
X186353258Y-113806112D01*
X186355912Y-113811238D01*
X186695234Y-114505714D01*
X186697647Y-114510958D01*
X186874427Y-114920006D01*
X186972954Y-115147986D01*
X187004293Y-115220499D01*
X187006459Y-115225850D01*
X187279742Y-115948879D01*
X187281657Y-115954325D01*
X187520999Y-116689303D01*
X187522655Y-116694824D01*
X187708918Y-117372428D01*
X187713353Y-117405292D01*
X187713353Y-133375500D01*
X187693668Y-133442539D01*
X187640864Y-133488294D01*
X187589353Y-133499500D01*
X110624500Y-133499500D01*
X110557461Y-133479815D01*
X110511706Y-133427011D01*
X110500500Y-133375500D01*
X110500500Y-122358934D01*
X142994618Y-122358934D01*
X143019746Y-122384063D01*
X143019765Y-122384081D01*
X143447232Y-122762785D01*
X143447233Y-122762786D01*
X143896787Y-123114988D01*
X144366774Y-123439397D01*
X144366799Y-123439413D01*
X144855515Y-123734852D01*
X145361212Y-124000262D01*
X145882001Y-124234650D01*
X146415980Y-124437161D01*
X146961210Y-124607062D01*
X146961216Y-124607064D01*
X147515712Y-124743734D01*
X148077468Y-124846680D01*
X148644394Y-124915518D01*
X149214442Y-124949999D01*
X149214464Y-124950000D01*
X149785536Y-124950000D01*
X149785557Y-124949999D01*
X150355605Y-124915518D01*
X150922531Y-124846680D01*
X151484287Y-124743734D01*
X152038783Y-124607064D01*
X152038789Y-124607062D01*
X152584019Y-124437161D01*
X153117998Y-124234650D01*
X153638787Y-124000262D01*
X154144484Y-123734852D01*
X154633200Y-123439413D01*
X154633225Y-123439397D01*
X155103212Y-123114988D01*
X155552766Y-122762786D01*
X155552767Y-122762785D01*
X155980218Y-122384096D01*
X155980236Y-122384079D01*
X156005380Y-122358934D01*
X149500000Y-115853554D01*
X142994618Y-122358934D01*
X110500500Y-122358934D01*
X110500500Y-117444982D01*
X110501317Y-117430768D01*
X110513434Y-117325765D01*
X110575451Y-116788322D01*
X110576429Y-116781522D01*
X110689783Y-116124401D01*
X110691151Y-116117610D01*
X110702591Y-116068028D01*
X110841069Y-115467833D01*
X110842804Y-115461170D01*
X110865802Y-115381995D01*
X137149500Y-115381995D01*
X137149500Y-115618004D01*
X137149501Y-115618020D01*
X137180306Y-115852010D01*
X137241394Y-116079993D01*
X137331714Y-116298045D01*
X137331719Y-116298056D01*
X137402677Y-116420957D01*
X137449727Y-116502450D01*
X137449729Y-116502453D01*
X137449730Y-116502454D01*
X137593406Y-116689697D01*
X137593412Y-116689704D01*
X137760295Y-116856587D01*
X137760301Y-116856592D01*
X137947550Y-117000273D01*
X138078918Y-117076118D01*
X138151943Y-117118280D01*
X138151948Y-117118282D01*
X138151951Y-117118284D01*
X138370007Y-117208606D01*
X138597986Y-117269693D01*
X138831989Y-117300500D01*
X138831996Y-117300500D01*
X139068004Y-117300500D01*
X139068011Y-117300500D01*
X139302014Y-117269693D01*
X139529993Y-117208606D01*
X139748049Y-117118284D01*
X139952450Y-117000273D01*
X139980149Y-116979018D01*
X140045315Y-116953825D01*
X140113760Y-116967862D01*
X140163750Y-117016676D01*
X140177603Y-117055043D01*
X140256265Y-117484287D01*
X140392935Y-118038783D01*
X140392937Y-118038789D01*
X140562838Y-118584019D01*
X140765349Y-119117998D01*
X140999737Y-119638787D01*
X141265147Y-120144484D01*
X141560586Y-120633200D01*
X141560602Y-120633225D01*
X141885011Y-121103212D01*
X142237213Y-121552766D01*
X142237214Y-121552767D01*
X142615918Y-121980234D01*
X142615936Y-121980253D01*
X142641064Y-122005380D01*
X149146446Y-115500000D01*
X149146446Y-115499999D01*
X149853554Y-115499999D01*
X149853554Y-115500000D01*
X156358934Y-122005380D01*
X156384079Y-121980236D01*
X156384096Y-121980218D01*
X156762785Y-121552767D01*
X156762786Y-121552766D01*
X157114988Y-121103212D01*
X157439397Y-120633225D01*
X157439413Y-120633200D01*
X157734852Y-120144484D01*
X158000262Y-119638787D01*
X158234650Y-119117998D01*
X158437161Y-118584019D01*
X158607062Y-118038789D01*
X158607064Y-118038783D01*
X158743735Y-117484284D01*
X158822396Y-117055044D01*
X158853842Y-116992650D01*
X158914029Y-116957163D01*
X158983847Y-116959849D01*
X159019851Y-116979019D01*
X159033510Y-116989500D01*
X159047550Y-117000273D01*
X159178918Y-117076118D01*
X159251943Y-117118280D01*
X159251948Y-117118282D01*
X159251951Y-117118284D01*
X159470007Y-117208606D01*
X159697986Y-117269693D01*
X159931989Y-117300500D01*
X159931996Y-117300500D01*
X160168004Y-117300500D01*
X160168011Y-117300500D01*
X160402014Y-117269693D01*
X160629993Y-117208606D01*
X160848049Y-117118284D01*
X161052450Y-117000273D01*
X161239699Y-116856592D01*
X161406592Y-116689699D01*
X161550273Y-116502450D01*
X161668284Y-116298049D01*
X161758606Y-116079993D01*
X161819693Y-115852014D01*
X161850500Y-115618011D01*
X161850500Y-115381989D01*
X161819693Y-115147986D01*
X161758606Y-114920007D01*
X161668284Y-114701951D01*
X161668282Y-114701948D01*
X161668280Y-114701943D01*
X161608246Y-114597962D01*
X161550273Y-114497550D01*
X161406592Y-114310301D01*
X161406587Y-114310295D01*
X161239704Y-114143412D01*
X161239697Y-114143406D01*
X161052454Y-113999730D01*
X161052453Y-113999729D01*
X161052450Y-113999727D01*
X160957584Y-113944956D01*
X160848056Y-113881719D01*
X160848045Y-113881714D01*
X160629993Y-113791394D01*
X160402010Y-113730306D01*
X160168020Y-113699501D01*
X160168017Y-113699500D01*
X160168011Y-113699500D01*
X159931989Y-113699500D01*
X159931983Y-113699500D01*
X159931979Y-113699501D01*
X159697989Y-113730306D01*
X159470006Y-113791394D01*
X159251954Y-113881714D01*
X159251943Y-113881719D01*
X159047542Y-113999731D01*
X159019849Y-114020981D01*
X158954680Y-114046174D01*
X158886235Y-114032134D01*
X158836246Y-113983320D01*
X158822396Y-113944956D01*
X158743734Y-113515712D01*
X158607064Y-112961216D01*
X158607062Y-112961210D01*
X158437161Y-112415980D01*
X158234650Y-111882001D01*
X158000262Y-111361212D01*
X157734852Y-110855515D01*
X157439413Y-110366799D01*
X157439397Y-110366774D01*
X157114988Y-109896787D01*
X156762786Y-109447233D01*
X156762785Y-109447232D01*
X156384081Y-109019765D01*
X156384063Y-109019746D01*
X156358935Y-108994618D01*
X149853554Y-115499999D01*
X149146446Y-115499999D01*
X142641064Y-108994618D01*
X142615918Y-109019764D01*
X142237214Y-109447232D01*
X142237213Y-109447233D01*
X141885011Y-109896787D01*
X141560602Y-110366774D01*
X141560586Y-110366799D01*
X141265147Y-110855515D01*
X140999737Y-111361212D01*
X140765349Y-111882001D01*
X140562838Y-112415980D01*
X140392937Y-112961210D01*
X140392935Y-112961216D01*
X140256265Y-113515712D01*
X140177603Y-113944956D01*
X140146156Y-114007349D01*
X140085970Y-114042836D01*
X140016152Y-114040150D01*
X139980148Y-114020980D01*
X139952454Y-113999730D01*
X139952453Y-113999729D01*
X139952450Y-113999727D01*
X139857584Y-113944956D01*
X139748056Y-113881719D01*
X139748045Y-113881714D01*
X139529993Y-113791394D01*
X139302010Y-113730306D01*
X139068020Y-113699501D01*
X139068017Y-113699500D01*
X139068011Y-113699500D01*
X138831989Y-113699500D01*
X138831983Y-113699500D01*
X138831979Y-113699501D01*
X138597989Y-113730306D01*
X138370006Y-113791394D01*
X138151954Y-113881714D01*
X138151943Y-113881719D01*
X137947545Y-113999730D01*
X137760302Y-114143406D01*
X137760295Y-114143412D01*
X137593412Y-114310295D01*
X137593406Y-114310302D01*
X137449730Y-114497545D01*
X137331719Y-114701943D01*
X137331714Y-114701954D01*
X137241394Y-114920006D01*
X137180306Y-115147989D01*
X137149501Y-115381979D01*
X137149500Y-115381995D01*
X110865802Y-115381995D01*
X111028815Y-114820783D01*
X111030914Y-114814247D01*
X111252430Y-114185271D01*
X111254903Y-114178829D01*
X111511239Y-113563215D01*
X111514078Y-113556902D01*
X111695466Y-113181870D01*
X111804422Y-112956595D01*
X111807578Y-112950509D01*
X112131049Y-112367334D01*
X112134551Y-112361418D01*
X112490109Y-111797253D01*
X112493939Y-111791537D01*
X112880474Y-111248143D01*
X112884633Y-111242630D01*
X113300939Y-110721698D01*
X113305387Y-110716440D01*
X113750180Y-110219579D01*
X113754898Y-110214596D01*
X114226759Y-109743390D01*
X114231779Y-109738650D01*
X114729236Y-109294569D01*
X114734498Y-109290129D01*
X115256041Y-108874523D01*
X115261509Y-108870411D01*
X115584879Y-108641064D01*
X142994618Y-108641064D01*
X149499999Y-115146446D01*
X156005381Y-108641065D01*
X156005381Y-108641063D01*
X155980270Y-108615952D01*
X155980234Y-108615918D01*
X155552767Y-108237214D01*
X155552766Y-108237213D01*
X155103212Y-107885011D01*
X154633225Y-107560602D01*
X154633200Y-107560586D01*
X154144484Y-107265147D01*
X153638787Y-106999737D01*
X153117998Y-106765349D01*
X152584019Y-106562838D01*
X152038789Y-106392937D01*
X152038783Y-106392935D01*
X151484287Y-106256265D01*
X150922531Y-106153319D01*
X150355605Y-106084481D01*
X149785557Y-106050000D01*
X149214442Y-106050000D01*
X148644394Y-106084481D01*
X148077468Y-106153319D01*
X147515712Y-106256265D01*
X146961216Y-106392935D01*
X146961210Y-106392937D01*
X146415980Y-106562838D01*
X145882001Y-106765349D01*
X145361212Y-106999737D01*
X144855515Y-107265147D01*
X144366799Y-107560586D01*
X144366774Y-107560602D01*
X143896787Y-107885011D01*
X143447233Y-108237213D01*
X143447232Y-108237214D01*
X143019764Y-108615918D01*
X142994618Y-108641064D01*
X115584879Y-108641064D01*
X115805469Y-108484613D01*
X115811191Y-108480791D01*
X116198871Y-108237214D01*
X116375818Y-108126039D01*
X116381790Y-108122515D01*
X116965375Y-107799876D01*
X116971504Y-107796709D01*
X117572210Y-107507202D01*
X117578507Y-107504382D01*
X118194462Y-107248909D01*
X118200902Y-107246446D01*
X118830201Y-107025798D01*
X118836788Y-107023694D01*
X119477388Y-106838588D01*
X119484077Y-106836856D01*
X120087310Y-106698561D01*
X120088324Y-106698334D01*
X120100283Y-106695707D01*
X120114818Y-106695427D01*
X120156868Y-106683282D01*
X120160802Y-106682419D01*
X120161047Y-106682436D01*
X120163057Y-106681945D01*
X120202028Y-106674152D01*
X120211120Y-106669655D01*
X120231669Y-106661681D01*
X120241428Y-106658864D01*
X120279903Y-106635646D01*
X120320160Y-106615742D01*
X120336091Y-106601741D01*
X120354261Y-106590777D01*
X120381811Y-106562139D01*
X120381812Y-106562139D01*
X120385419Y-106558389D01*
X120419150Y-106528747D01*
X120430916Y-106511097D01*
X120629203Y-106304986D01*
X121062988Y-105805758D01*
X121097071Y-105762265D01*
X121315714Y-105483250D01*
X121470919Y-105285191D01*
X121718386Y-104934108D01*
X121851935Y-104744642D01*
X121851940Y-104744635D01*
X121851941Y-104744632D01*
X121851949Y-104744622D01*
X122205098Y-104185441D01*
X122516618Y-103631902D01*
X144749500Y-103631902D01*
X144749500Y-103868097D01*
X144786446Y-104101368D01*
X144859433Y-104325996D01*
X144903089Y-104411674D01*
X144966657Y-104536433D01*
X145105483Y-104727510D01*
X145272490Y-104894517D01*
X145463567Y-105033343D01*
X145562991Y-105084002D01*
X145674003Y-105140566D01*
X145674005Y-105140566D01*
X145674008Y-105140568D01*
X145794412Y-105179689D01*
X145898631Y-105213553D01*
X146131903Y-105250500D01*
X146131908Y-105250500D01*
X146368097Y-105250500D01*
X146601368Y-105213553D01*
X146603144Y-105212976D01*
X146825992Y-105140568D01*
X147036433Y-105033343D01*
X147227510Y-104894517D01*
X147394517Y-104727510D01*
X147533343Y-104536433D01*
X147640568Y-104325992D01*
X147713553Y-104101368D01*
X147740612Y-103930526D01*
X147750500Y-103868097D01*
X147750500Y-103631902D01*
X151249500Y-103631902D01*
X151249500Y-103868097D01*
X151286446Y-104101368D01*
X151359433Y-104325996D01*
X151403089Y-104411674D01*
X151466657Y-104536433D01*
X151605483Y-104727510D01*
X151772490Y-104894517D01*
X151963567Y-105033343D01*
X152062991Y-105084002D01*
X152174003Y-105140566D01*
X152174005Y-105140566D01*
X152174008Y-105140568D01*
X152294412Y-105179689D01*
X152398631Y-105213553D01*
X152631903Y-105250500D01*
X152631908Y-105250500D01*
X152868097Y-105250500D01*
X153101368Y-105213553D01*
X153103144Y-105212976D01*
X153325992Y-105140568D01*
X153536433Y-105033343D01*
X153727510Y-104894517D01*
X153894517Y-104727510D01*
X154033343Y-104536433D01*
X154140568Y-104325992D01*
X154213553Y-104101368D01*
X154240612Y-103930526D01*
X154250500Y-103868097D01*
X154250500Y-103631902D01*
X154213553Y-103398631D01*
X154140566Y-103174003D01*
X154033342Y-102963566D01*
X153894517Y-102772490D01*
X153727510Y-102605483D01*
X153536433Y-102466657D01*
X153325996Y-102359433D01*
X153101368Y-102286446D01*
X152868097Y-102249500D01*
X152868092Y-102249500D01*
X152631908Y-102249500D01*
X152631903Y-102249500D01*
X152398631Y-102286446D01*
X152174003Y-102359433D01*
X151963566Y-102466657D01*
X151875936Y-102530325D01*
X151772490Y-102605483D01*
X151772488Y-102605485D01*
X151772487Y-102605485D01*
X151605485Y-102772487D01*
X151605485Y-102772488D01*
X151605483Y-102772490D01*
X151566330Y-102826380D01*
X151466657Y-102963566D01*
X151359433Y-103174003D01*
X151286446Y-103398631D01*
X151249500Y-103631902D01*
X147750500Y-103631902D01*
X147713553Y-103398631D01*
X147640566Y-103174003D01*
X147533342Y-102963566D01*
X147394517Y-102772490D01*
X147227510Y-102605483D01*
X147036433Y-102466657D01*
X146825996Y-102359433D01*
X146601368Y-102286446D01*
X146368097Y-102249500D01*
X146368092Y-102249500D01*
X146131908Y-102249500D01*
X146131903Y-102249500D01*
X145898631Y-102286446D01*
X145674003Y-102359433D01*
X145463566Y-102466657D01*
X145375936Y-102530325D01*
X145272490Y-102605483D01*
X145272488Y-102605485D01*
X145272487Y-102605485D01*
X145105485Y-102772487D01*
X145105485Y-102772488D01*
X145105483Y-102772490D01*
X145066330Y-102826380D01*
X144966657Y-102963566D01*
X144859433Y-103174003D01*
X144786446Y-103398631D01*
X144749500Y-103631902D01*
X122516618Y-103631902D01*
X122529459Y-103609084D01*
X122669946Y-103326892D01*
X122695176Y-103283194D01*
X122699225Y-103268080D01*
X122706199Y-103254073D01*
X122715469Y-103208363D01*
X122717206Y-103200973D01*
X122729284Y-103155900D01*
X122729284Y-103140252D01*
X122732394Y-103124919D01*
X122729284Y-103074565D01*
X122729284Y-103024116D01*
X122725234Y-103009003D01*
X122724270Y-102993385D01*
X122708232Y-102945548D01*
X122695176Y-102896822D01*
X122693575Y-102894050D01*
X122683396Y-102871470D01*
X122682379Y-102868436D01*
X122654506Y-102826380D01*
X122629284Y-102782694D01*
X122618220Y-102771630D01*
X122611344Y-102761254D01*
X122609578Y-102758589D01*
X122609574Y-102758585D01*
X122574629Y-102727706D01*
X122571767Y-102725177D01*
X122536098Y-102689508D01*
X122522548Y-102681685D01*
X122510823Y-102671324D01*
X122510821Y-102671323D01*
X122510819Y-102671321D01*
X122469082Y-102650543D01*
X122465660Y-102648840D01*
X122421970Y-102623616D01*
X122406856Y-102619566D01*
X122395710Y-102614017D01*
X122394703Y-102613515D01*
X122392849Y-102612593D01*
X122392846Y-102612592D01*
X122392843Y-102612591D01*
X122347155Y-102603324D01*
X122343405Y-102602564D01*
X122294676Y-102589508D01*
X122279029Y-102589508D01*
X122277865Y-102589272D01*
X122266831Y-102587034D01*
X122266829Y-102587033D01*
X122263697Y-102586398D01*
X122263695Y-102586397D01*
X122217163Y-102589272D01*
X122209519Y-102589508D01*
X114088628Y-102589508D01*
X114053840Y-102584528D01*
X113599573Y-102451752D01*
X113592649Y-102449506D01*
X113079321Y-102266145D01*
X113072541Y-102263496D01*
X112570863Y-102050334D01*
X112564251Y-102047292D01*
X112075963Y-101805072D01*
X112069540Y-101801648D01*
X111881431Y-101694144D01*
X111596267Y-101531173D01*
X111590075Y-101527389D01*
X111255613Y-101309259D01*
X111133505Y-101229622D01*
X111127528Y-101225469D01*
X110707488Y-100914935D01*
X110695557Y-100904896D01*
X108928031Y-99216707D01*
X108850840Y-99142981D01*
X108848805Y-99140991D01*
X108839716Y-99131902D01*
X144749500Y-99131902D01*
X144749500Y-99368097D01*
X144786446Y-99601368D01*
X144859433Y-99825996D01*
X144966657Y-100036433D01*
X145105483Y-100227510D01*
X145272490Y-100394517D01*
X145463567Y-100533343D01*
X145553561Y-100579197D01*
X145674003Y-100640566D01*
X145674005Y-100640566D01*
X145674008Y-100640568D01*
X145794412Y-100679689D01*
X145898631Y-100713553D01*
X146131903Y-100750500D01*
X146131908Y-100750500D01*
X146368097Y-100750500D01*
X146601368Y-100713553D01*
X146825992Y-100640568D01*
X147036433Y-100533343D01*
X147227510Y-100394517D01*
X147394517Y-100227510D01*
X147533343Y-100036433D01*
X147640568Y-99825992D01*
X147713553Y-99601368D01*
X147728696Y-99505760D01*
X147750500Y-99368097D01*
X147750500Y-99131902D01*
X151249500Y-99131902D01*
X151249500Y-99368097D01*
X151286446Y-99601368D01*
X151359433Y-99825996D01*
X151466657Y-100036433D01*
X151605483Y-100227510D01*
X151772490Y-100394517D01*
X151963567Y-100533343D01*
X152053561Y-100579197D01*
X152174003Y-100640566D01*
X152174005Y-100640566D01*
X152174008Y-100640568D01*
X152294412Y-100679689D01*
X152398631Y-100713553D01*
X152631903Y-100750500D01*
X152631908Y-100750500D01*
X152868097Y-100750500D01*
X153101368Y-100713553D01*
X153325992Y-100640568D01*
X153536433Y-100533343D01*
X153727510Y-100394517D01*
X153894517Y-100227510D01*
X154033343Y-100036433D01*
X154140568Y-99825992D01*
X154213553Y-99601368D01*
X154228696Y-99505760D01*
X154250500Y-99368097D01*
X154250500Y-99131902D01*
X154213553Y-98898631D01*
X154140566Y-98674003D01*
X154033342Y-98463566D01*
X153894517Y-98272490D01*
X153727510Y-98105483D01*
X153536433Y-97966657D01*
X153325996Y-97859433D01*
X153101368Y-97786446D01*
X152868097Y-97749500D01*
X152868092Y-97749500D01*
X152631908Y-97749500D01*
X152631903Y-97749500D01*
X152398631Y-97786446D01*
X152174003Y-97859433D01*
X151963566Y-97966657D01*
X151854550Y-98045862D01*
X151772490Y-98105483D01*
X151772488Y-98105485D01*
X151772487Y-98105485D01*
X151605485Y-98272487D01*
X151605485Y-98272488D01*
X151605483Y-98272490D01*
X151545862Y-98354550D01*
X151466657Y-98463566D01*
X151359433Y-98674003D01*
X151286446Y-98898631D01*
X151249500Y-99131902D01*
X147750500Y-99131902D01*
X147713553Y-98898631D01*
X147640566Y-98674003D01*
X147533342Y-98463566D01*
X147394517Y-98272490D01*
X147227510Y-98105483D01*
X147036433Y-97966657D01*
X146825996Y-97859433D01*
X146601368Y-97786446D01*
X146368097Y-97749500D01*
X146368092Y-97749500D01*
X146131908Y-97749500D01*
X146131903Y-97749500D01*
X145898631Y-97786446D01*
X145674003Y-97859433D01*
X145463566Y-97966657D01*
X145354550Y-98045862D01*
X145272490Y-98105483D01*
X145272488Y-98105485D01*
X145272487Y-98105485D01*
X145105485Y-98272487D01*
X145105485Y-98272488D01*
X145105483Y-98272490D01*
X145045862Y-98354550D01*
X144966657Y-98463566D01*
X144859433Y-98674003D01*
X144786446Y-98898631D01*
X144749500Y-99131902D01*
X108839716Y-99131902D01*
X108807314Y-99099500D01*
X108802718Y-99095973D01*
X108798040Y-99092551D01*
X108746497Y-99064350D01*
X108746497Y-99064349D01*
X108745246Y-99063664D01*
X108693186Y-99033608D01*
X108687549Y-99032097D01*
X108682433Y-99029298D01*
X108682428Y-99029296D01*
X108625355Y-99015398D01*
X108625355Y-99015399D01*
X108623972Y-99015062D01*
X108565892Y-98999500D01*
X108560059Y-98999500D01*
X108554387Y-98998119D01*
X108554383Y-98998118D01*
X108496552Y-98999446D01*
X108495676Y-98999467D01*
X108495675Y-98999467D01*
X108494236Y-98999500D01*
X108434108Y-98999500D01*
X108428479Y-99001008D01*
X108422640Y-99001142D01*
X108422638Y-99001143D01*
X108366266Y-99017642D01*
X108366267Y-99017643D01*
X108364904Y-99018042D01*
X108306814Y-99033608D01*
X108301760Y-99036525D01*
X108298919Y-99037357D01*
X108296159Y-99038165D01*
X108245999Y-99068681D01*
X108243554Y-99070130D01*
X108192682Y-99099501D01*
X108188076Y-99103035D01*
X108183575Y-99106657D01*
X108142981Y-99149155D01*
X108142982Y-99149156D01*
X108141983Y-99150201D01*
X108099500Y-99192686D01*
X108096582Y-99197738D01*
X108092964Y-99201526D01*
X108092549Y-99201962D01*
X108064375Y-99253455D01*
X108062983Y-99255932D01*
X108033606Y-99306815D01*
X108031399Y-99312143D01*
X108029294Y-99317575D01*
X108015398Y-99374642D01*
X108015399Y-99374643D01*
X108015059Y-99376037D01*
X107999500Y-99434108D01*
X107999500Y-99439936D01*
X107998118Y-99445612D01*
X107999467Y-99504322D01*
X107999500Y-99507169D01*
X107999500Y-106838144D01*
X107995602Y-106853078D01*
X107996375Y-106865807D01*
X107983685Y-106898741D01*
X107873083Y-107096202D01*
X107866928Y-107106074D01*
X107661771Y-107403113D01*
X107654717Y-107412366D01*
X107422622Y-107688872D01*
X107414732Y-107697422D01*
X107157758Y-107950944D01*
X107149102Y-107958718D01*
X106869474Y-108187059D01*
X106860127Y-108193986D01*
X106560357Y-108395097D01*
X106550402Y-108401119D01*
X106233083Y-108573258D01*
X106222607Y-108578320D01*
X105890560Y-108719959D01*
X105879656Y-108724017D01*
X105535791Y-108833912D01*
X105524555Y-108836930D01*
X105171900Y-108914116D01*
X105160430Y-108916067D01*
X104802103Y-108959859D01*
X104790501Y-108960727D01*
X104429646Y-108970743D01*
X104418014Y-108970520D01*
X104057808Y-108946671D01*
X104046248Y-108945359D01*
X103689857Y-108887855D01*
X103678471Y-108885465D01*
X103329038Y-108794812D01*
X103317926Y-108791365D01*
X102978537Y-108668365D01*
X102967796Y-108663892D01*
X102641421Y-108509620D01*
X102631148Y-108504160D01*
X102320664Y-108319977D01*
X102310947Y-108313578D01*
X102019108Y-108101117D01*
X102010033Y-108093836D01*
X101872384Y-107972343D01*
X101739372Y-107854942D01*
X101731023Y-107846845D01*
X101650821Y-107761407D01*
X101483953Y-107583644D01*
X101476397Y-107574797D01*
X101255085Y-107289602D01*
X101248391Y-107280086D01*
X101136941Y-107104696D01*
X101117599Y-107038192D01*
X101117599Y-90707648D01*
X132199500Y-90707648D01*
X132199500Y-90912351D01*
X132231522Y-91114534D01*
X132294781Y-91309223D01*
X132387715Y-91491613D01*
X132508028Y-91657213D01*
X132652786Y-91801971D01*
X132807749Y-91914556D01*
X132818390Y-91922287D01*
X132934607Y-91981503D01*
X133000776Y-92015218D01*
X133000778Y-92015218D01*
X133000781Y-92015220D01*
X133105137Y-92049127D01*
X133195465Y-92078477D01*
X133296557Y-92094488D01*
X133397648Y-92110500D01*
X133397649Y-92110500D01*
X133602351Y-92110500D01*
X133602352Y-92110500D01*
X133804534Y-92078477D01*
X133999219Y-92015220D01*
X134181610Y-91922287D01*
X134274590Y-91854732D01*
X134347213Y-91801971D01*
X134347215Y-91801968D01*
X134347219Y-91801966D01*
X134491966Y-91657219D01*
X134491968Y-91657215D01*
X134491971Y-91657213D01*
X134544732Y-91584590D01*
X134612287Y-91491610D01*
X134705220Y-91309219D01*
X134768477Y-91114534D01*
X134800500Y-90912352D01*
X134800500Y-90707648D01*
X140199500Y-90707648D01*
X140199500Y-90912351D01*
X140231522Y-91114534D01*
X140294781Y-91309223D01*
X140387715Y-91491613D01*
X140508028Y-91657213D01*
X140652786Y-91801971D01*
X140807749Y-91914556D01*
X140818390Y-91922287D01*
X140934607Y-91981503D01*
X141000776Y-92015218D01*
X141000778Y-92015218D01*
X141000781Y-92015220D01*
X141105137Y-92049127D01*
X141195465Y-92078477D01*
X141296557Y-92094488D01*
X141397648Y-92110500D01*
X141397649Y-92110500D01*
X141602351Y-92110500D01*
X141602352Y-92110500D01*
X141804534Y-92078477D01*
X141999219Y-92015220D01*
X142181610Y-91922287D01*
X142274590Y-91854732D01*
X142347213Y-91801971D01*
X142347215Y-91801968D01*
X142347219Y-91801966D01*
X142491966Y-91657219D01*
X142491968Y-91657215D01*
X142491971Y-91657213D01*
X142544732Y-91584590D01*
X142612287Y-91491610D01*
X142705220Y-91309219D01*
X142768477Y-91114534D01*
X142800500Y-90912352D01*
X142800500Y-90707648D01*
X148199500Y-90707648D01*
X148199500Y-90912351D01*
X148231522Y-91114534D01*
X148294781Y-91309223D01*
X148387715Y-91491613D01*
X148508028Y-91657213D01*
X148652786Y-91801971D01*
X148807749Y-91914556D01*
X148818390Y-91922287D01*
X148934607Y-91981503D01*
X149000776Y-92015218D01*
X149000778Y-92015218D01*
X149000781Y-92015220D01*
X149105137Y-92049127D01*
X149195465Y-92078477D01*
X149296557Y-92094488D01*
X149397648Y-92110500D01*
X149397649Y-92110500D01*
X149602351Y-92110500D01*
X149602352Y-92110500D01*
X149804534Y-92078477D01*
X149999219Y-92015220D01*
X150181610Y-91922287D01*
X150274590Y-91854732D01*
X150347213Y-91801971D01*
X150347215Y-91801968D01*
X150347219Y-91801966D01*
X150491966Y-91657219D01*
X150491968Y-91657215D01*
X150491971Y-91657213D01*
X150544732Y-91584590D01*
X150612287Y-91491610D01*
X150705220Y-91309219D01*
X150768477Y-91114534D01*
X150800500Y-90912352D01*
X150800500Y-90707648D01*
X156199500Y-90707648D01*
X156199500Y-90912351D01*
X156231522Y-91114534D01*
X156294781Y-91309223D01*
X156387715Y-91491613D01*
X156508028Y-91657213D01*
X156652786Y-91801971D01*
X156807749Y-91914556D01*
X156818390Y-91922287D01*
X156934607Y-91981503D01*
X157000776Y-92015218D01*
X157000778Y-92015218D01*
X157000781Y-92015220D01*
X157105137Y-92049127D01*
X157195465Y-92078477D01*
X157296557Y-92094488D01*
X157397648Y-92110500D01*
X157397649Y-92110500D01*
X157602351Y-92110500D01*
X157602352Y-92110500D01*
X157804534Y-92078477D01*
X157999219Y-92015220D01*
X158181610Y-91922287D01*
X158274590Y-91854732D01*
X158347213Y-91801971D01*
X158347215Y-91801968D01*
X158347219Y-91801966D01*
X158491966Y-91657219D01*
X158491968Y-91657215D01*
X158491971Y-91657213D01*
X158544732Y-91584590D01*
X158612287Y-91491610D01*
X158705220Y-91309219D01*
X158768477Y-91114534D01*
X158800500Y-90912352D01*
X158800500Y-90707648D01*
X164199500Y-90707648D01*
X164199500Y-90912351D01*
X164231522Y-91114534D01*
X164294781Y-91309223D01*
X164387715Y-91491613D01*
X164508028Y-91657213D01*
X164652786Y-91801971D01*
X164807749Y-91914556D01*
X164818390Y-91922287D01*
X164934607Y-91981503D01*
X165000776Y-92015218D01*
X165000778Y-92015218D01*
X165000781Y-92015220D01*
X165105137Y-92049127D01*
X165195465Y-92078477D01*
X165296557Y-92094488D01*
X165397648Y-92110500D01*
X165397649Y-92110500D01*
X165602351Y-92110500D01*
X165602352Y-92110500D01*
X165804534Y-92078477D01*
X165999219Y-92015220D01*
X166181610Y-91922287D01*
X166274590Y-91854732D01*
X166347213Y-91801971D01*
X166347215Y-91801968D01*
X166347219Y-91801966D01*
X166491966Y-91657219D01*
X166491968Y-91657215D01*
X166491971Y-91657213D01*
X166544732Y-91584590D01*
X166612287Y-91491610D01*
X166705220Y-91309219D01*
X166768477Y-91114534D01*
X166800500Y-90912352D01*
X166800500Y-90707648D01*
X166768477Y-90505466D01*
X166705220Y-90310781D01*
X166705218Y-90310778D01*
X166705218Y-90310776D01*
X166671503Y-90244607D01*
X166612287Y-90128390D01*
X166604556Y-90117749D01*
X166491971Y-89962786D01*
X166347213Y-89818028D01*
X166181613Y-89697715D01*
X166181612Y-89697714D01*
X166181610Y-89697713D01*
X166124653Y-89668691D01*
X165999223Y-89604781D01*
X165804534Y-89541522D01*
X165629995Y-89513878D01*
X165602352Y-89509500D01*
X165397648Y-89509500D01*
X165373329Y-89513351D01*
X165195465Y-89541522D01*
X165000776Y-89604781D01*
X164818386Y-89697715D01*
X164652786Y-89818028D01*
X164508028Y-89962786D01*
X164387715Y-90128386D01*
X164294781Y-90310776D01*
X164231522Y-90505465D01*
X164199500Y-90707648D01*
X158800500Y-90707648D01*
X158768477Y-90505466D01*
X158705220Y-90310781D01*
X158705218Y-90310778D01*
X158705218Y-90310776D01*
X158671503Y-90244607D01*
X158612287Y-90128390D01*
X158604556Y-90117749D01*
X158491971Y-89962786D01*
X158347213Y-89818028D01*
X158181613Y-89697715D01*
X158181612Y-89697714D01*
X158181610Y-89697713D01*
X158124653Y-89668691D01*
X157999223Y-89604781D01*
X157804534Y-89541522D01*
X157629995Y-89513878D01*
X157602352Y-89509500D01*
X157397648Y-89509500D01*
X157373329Y-89513351D01*
X157195465Y-89541522D01*
X157000776Y-89604781D01*
X156818386Y-89697715D01*
X156652786Y-89818028D01*
X156508028Y-89962786D01*
X156387715Y-90128386D01*
X156294781Y-90310776D01*
X156231522Y-90505465D01*
X156199500Y-90707648D01*
X150800500Y-90707648D01*
X150768477Y-90505466D01*
X150705220Y-90310781D01*
X150705218Y-90310778D01*
X150705218Y-90310776D01*
X150671503Y-90244607D01*
X150612287Y-90128390D01*
X150604556Y-90117749D01*
X150491971Y-89962786D01*
X150347213Y-89818028D01*
X150181613Y-89697715D01*
X150181612Y-89697714D01*
X150181610Y-89697713D01*
X150124653Y-89668691D01*
X149999223Y-89604781D01*
X149804534Y-89541522D01*
X149629995Y-89513878D01*
X149602352Y-89509500D01*
X149397648Y-89509500D01*
X149373329Y-89513351D01*
X149195465Y-89541522D01*
X149000776Y-89604781D01*
X148818386Y-89697715D01*
X148652786Y-89818028D01*
X148508028Y-89962786D01*
X148387715Y-90128386D01*
X148294781Y-90310776D01*
X148231522Y-90505465D01*
X148199500Y-90707648D01*
X142800500Y-90707648D01*
X142768477Y-90505466D01*
X142705220Y-90310781D01*
X142705218Y-90310778D01*
X142705218Y-90310776D01*
X142671503Y-90244607D01*
X142612287Y-90128390D01*
X142604556Y-90117749D01*
X142491971Y-89962786D01*
X142347213Y-89818028D01*
X142181613Y-89697715D01*
X142181612Y-89697714D01*
X142181610Y-89697713D01*
X142124653Y-89668691D01*
X141999223Y-89604781D01*
X141804534Y-89541522D01*
X141629995Y-89513878D01*
X141602352Y-89509500D01*
X141397648Y-89509500D01*
X141373329Y-89513351D01*
X141195465Y-89541522D01*
X141000776Y-89604781D01*
X140818386Y-89697715D01*
X140652786Y-89818028D01*
X140508028Y-89962786D01*
X140387715Y-90128386D01*
X140294781Y-90310776D01*
X140231522Y-90505465D01*
X140199500Y-90707648D01*
X134800500Y-90707648D01*
X134768477Y-90505466D01*
X134705220Y-90310781D01*
X134705218Y-90310778D01*
X134705218Y-90310776D01*
X134671503Y-90244607D01*
X134612287Y-90128390D01*
X134604556Y-90117749D01*
X134491971Y-89962786D01*
X134347213Y-89818028D01*
X134181613Y-89697715D01*
X134181612Y-89697714D01*
X134181610Y-89697713D01*
X134124653Y-89668691D01*
X133999223Y-89604781D01*
X133804534Y-89541522D01*
X133629995Y-89513878D01*
X133602352Y-89509500D01*
X133397648Y-89509500D01*
X133373329Y-89513351D01*
X133195465Y-89541522D01*
X133000776Y-89604781D01*
X132818386Y-89697715D01*
X132652786Y-89818028D01*
X132508028Y-89962786D01*
X132387715Y-90128386D01*
X132294781Y-90310776D01*
X132231522Y-90505465D01*
X132199500Y-90707648D01*
X101117599Y-90707648D01*
X101117599Y-83087648D01*
X132199500Y-83087648D01*
X132199500Y-83292351D01*
X132231522Y-83494534D01*
X132294781Y-83689223D01*
X132387715Y-83871613D01*
X132508028Y-84037213D01*
X132652786Y-84181971D01*
X132807749Y-84294556D01*
X132818390Y-84302287D01*
X132934607Y-84361503D01*
X133000776Y-84395218D01*
X133000778Y-84395218D01*
X133000781Y-84395220D01*
X133105137Y-84429127D01*
X133195465Y-84458477D01*
X133296557Y-84474488D01*
X133397648Y-84490500D01*
X133397649Y-84490500D01*
X133602351Y-84490500D01*
X133602352Y-84490500D01*
X133804534Y-84458477D01*
X133999219Y-84395220D01*
X134181610Y-84302287D01*
X134274590Y-84234732D01*
X134347213Y-84181971D01*
X134347215Y-84181968D01*
X134347219Y-84181966D01*
X134491966Y-84037219D01*
X134491968Y-84037215D01*
X134491971Y-84037213D01*
X134544732Y-83964590D01*
X134612287Y-83871610D01*
X134705220Y-83689219D01*
X134768477Y-83494534D01*
X134800500Y-83292352D01*
X134800500Y-83087648D01*
X140199500Y-83087648D01*
X140199500Y-83292351D01*
X140231522Y-83494534D01*
X140294781Y-83689223D01*
X140387715Y-83871613D01*
X140508028Y-84037213D01*
X140652786Y-84181971D01*
X140807749Y-84294556D01*
X140818390Y-84302287D01*
X140934607Y-84361503D01*
X141000776Y-84395218D01*
X141000778Y-84395218D01*
X141000781Y-84395220D01*
X141105137Y-84429127D01*
X141195465Y-84458477D01*
X141296557Y-84474488D01*
X141397648Y-84490500D01*
X141397649Y-84490500D01*
X141602351Y-84490500D01*
X141602352Y-84490500D01*
X141804534Y-84458477D01*
X141999219Y-84395220D01*
X142181610Y-84302287D01*
X142274590Y-84234732D01*
X142347213Y-84181971D01*
X142347215Y-84181968D01*
X142347219Y-84181966D01*
X142491966Y-84037219D01*
X142491968Y-84037215D01*
X142491971Y-84037213D01*
X142544732Y-83964590D01*
X142612287Y-83871610D01*
X142705220Y-83689219D01*
X142768477Y-83494534D01*
X142800500Y-83292352D01*
X142800500Y-83087648D01*
X148199500Y-83087648D01*
X148199500Y-83292351D01*
X148231522Y-83494534D01*
X148294781Y-83689223D01*
X148387715Y-83871613D01*
X148508028Y-84037213D01*
X148652786Y-84181971D01*
X148807749Y-84294556D01*
X148818390Y-84302287D01*
X148934607Y-84361503D01*
X149000776Y-84395218D01*
X149000778Y-84395218D01*
X149000781Y-84395220D01*
X149105137Y-84429127D01*
X149195465Y-84458477D01*
X149296557Y-84474488D01*
X149397648Y-84490500D01*
X149397649Y-84490500D01*
X149602351Y-84490500D01*
X149602352Y-84490500D01*
X149804534Y-84458477D01*
X149999219Y-84395220D01*
X150181610Y-84302287D01*
X150274590Y-84234732D01*
X150347213Y-84181971D01*
X150347215Y-84181968D01*
X150347219Y-84181966D01*
X150491966Y-84037219D01*
X150491968Y-84037215D01*
X150491971Y-84037213D01*
X150544732Y-83964590D01*
X150612287Y-83871610D01*
X150705220Y-83689219D01*
X150768477Y-83494534D01*
X150800500Y-83292352D01*
X150800500Y-83087648D01*
X156199500Y-83087648D01*
X156199500Y-83292351D01*
X156231522Y-83494534D01*
X156294781Y-83689223D01*
X156387715Y-83871613D01*
X156508028Y-84037213D01*
X156652786Y-84181971D01*
X156807749Y-84294556D01*
X156818390Y-84302287D01*
X156934607Y-84361503D01*
X157000776Y-84395218D01*
X157000778Y-84395218D01*
X157000781Y-84395220D01*
X157105137Y-84429127D01*
X157195465Y-84458477D01*
X157296557Y-84474488D01*
X157397648Y-84490500D01*
X157397649Y-84490500D01*
X157602351Y-84490500D01*
X157602352Y-84490500D01*
X157804534Y-84458477D01*
X157999219Y-84395220D01*
X158181610Y-84302287D01*
X158274590Y-84234732D01*
X158347213Y-84181971D01*
X158347215Y-84181968D01*
X158347219Y-84181966D01*
X158491966Y-84037219D01*
X158491968Y-84037215D01*
X158491971Y-84037213D01*
X158544732Y-83964590D01*
X158612287Y-83871610D01*
X158705220Y-83689219D01*
X158768477Y-83494534D01*
X158800500Y-83292352D01*
X158800500Y-83087648D01*
X164199500Y-83087648D01*
X164199500Y-83292351D01*
X164231522Y-83494534D01*
X164294781Y-83689223D01*
X164387715Y-83871613D01*
X164508028Y-84037213D01*
X164652786Y-84181971D01*
X164807749Y-84294556D01*
X164818390Y-84302287D01*
X164934607Y-84361503D01*
X165000776Y-84395218D01*
X165000778Y-84395218D01*
X165000781Y-84395220D01*
X165105137Y-84429127D01*
X165195465Y-84458477D01*
X165296557Y-84474488D01*
X165397648Y-84490500D01*
X165397649Y-84490500D01*
X165602351Y-84490500D01*
X165602352Y-84490500D01*
X165804534Y-84458477D01*
X165999219Y-84395220D01*
X166181610Y-84302287D01*
X166274590Y-84234732D01*
X166347213Y-84181971D01*
X166347215Y-84181968D01*
X166347219Y-84181966D01*
X166491966Y-84037219D01*
X166491968Y-84037215D01*
X166491971Y-84037213D01*
X166544732Y-83964590D01*
X166612287Y-83871610D01*
X166705220Y-83689219D01*
X166768477Y-83494534D01*
X166800500Y-83292352D01*
X166800500Y-83087648D01*
X166768477Y-82885466D01*
X166705220Y-82690781D01*
X166705218Y-82690778D01*
X166705218Y-82690776D01*
X166671503Y-82624607D01*
X166612287Y-82508390D01*
X166604556Y-82497749D01*
X166491971Y-82342786D01*
X166347213Y-82198028D01*
X166181613Y-82077715D01*
X166181612Y-82077714D01*
X166181610Y-82077713D01*
X166124653Y-82048691D01*
X165999223Y-81984781D01*
X165804534Y-81921522D01*
X165629995Y-81893878D01*
X165602352Y-81889500D01*
X165397648Y-81889500D01*
X165373329Y-81893351D01*
X165195465Y-81921522D01*
X165000776Y-81984781D01*
X164818386Y-82077715D01*
X164652786Y-82198028D01*
X164508028Y-82342786D01*
X164387715Y-82508386D01*
X164294781Y-82690776D01*
X164231522Y-82885465D01*
X164199500Y-83087648D01*
X158800500Y-83087648D01*
X158768477Y-82885466D01*
X158705220Y-82690781D01*
X158705218Y-82690778D01*
X158705218Y-82690776D01*
X158671503Y-82624607D01*
X158612287Y-82508390D01*
X158604556Y-82497749D01*
X158491971Y-82342786D01*
X158347213Y-82198028D01*
X158181613Y-82077715D01*
X158181612Y-82077714D01*
X158181610Y-82077713D01*
X158124653Y-82048691D01*
X157999223Y-81984781D01*
X157804534Y-81921522D01*
X157629995Y-81893878D01*
X157602352Y-81889500D01*
X157397648Y-81889500D01*
X157373329Y-81893351D01*
X157195465Y-81921522D01*
X157000776Y-81984781D01*
X156818386Y-82077715D01*
X156652786Y-82198028D01*
X156508028Y-82342786D01*
X156387715Y-82508386D01*
X156294781Y-82690776D01*
X156231522Y-82885465D01*
X156199500Y-83087648D01*
X150800500Y-83087648D01*
X150768477Y-82885466D01*
X150705220Y-82690781D01*
X150705218Y-82690778D01*
X150705218Y-82690776D01*
X150671503Y-82624607D01*
X150612287Y-82508390D01*
X150604556Y-82497749D01*
X150491971Y-82342786D01*
X150347213Y-82198028D01*
X150181613Y-82077715D01*
X150181612Y-82077714D01*
X150181610Y-82077713D01*
X150124653Y-82048691D01*
X149999223Y-81984781D01*
X149804534Y-81921522D01*
X149629995Y-81893878D01*
X149602352Y-81889500D01*
X149397648Y-81889500D01*
X149373329Y-81893351D01*
X149195465Y-81921522D01*
X149000776Y-81984781D01*
X148818386Y-82077715D01*
X148652786Y-82198028D01*
X148508028Y-82342786D01*
X148387715Y-82508386D01*
X148294781Y-82690776D01*
X148231522Y-82885465D01*
X148199500Y-83087648D01*
X142800500Y-83087648D01*
X142768477Y-82885466D01*
X142705220Y-82690781D01*
X142705218Y-82690778D01*
X142705218Y-82690776D01*
X142671503Y-82624607D01*
X142612287Y-82508390D01*
X142604556Y-82497749D01*
X142491971Y-82342786D01*
X142347213Y-82198028D01*
X142181613Y-82077715D01*
X142181612Y-82077714D01*
X142181610Y-82077713D01*
X142124653Y-82048691D01*
X141999223Y-81984781D01*
X141804534Y-81921522D01*
X141629995Y-81893878D01*
X141602352Y-81889500D01*
X141397648Y-81889500D01*
X141373329Y-81893351D01*
X141195465Y-81921522D01*
X141000776Y-81984781D01*
X140818386Y-82077715D01*
X140652786Y-82198028D01*
X140508028Y-82342786D01*
X140387715Y-82508386D01*
X140294781Y-82690776D01*
X140231522Y-82885465D01*
X140199500Y-83087648D01*
X134800500Y-83087648D01*
X134768477Y-82885466D01*
X134705220Y-82690781D01*
X134705218Y-82690778D01*
X134705218Y-82690776D01*
X134671503Y-82624607D01*
X134612287Y-82508390D01*
X134604556Y-82497749D01*
X134491971Y-82342786D01*
X134347213Y-82198028D01*
X134181613Y-82077715D01*
X134181612Y-82077714D01*
X134181610Y-82077713D01*
X134124653Y-82048691D01*
X133999223Y-81984781D01*
X133804534Y-81921522D01*
X133629995Y-81893878D01*
X133602352Y-81889500D01*
X133397648Y-81889500D01*
X133373329Y-81893351D01*
X133195465Y-81921522D01*
X133000776Y-81984781D01*
X132818386Y-82077715D01*
X132652786Y-82198028D01*
X132508028Y-82342786D01*
X132387715Y-82508386D01*
X132294781Y-82690776D01*
X132231522Y-82885465D01*
X132199500Y-83087648D01*
X101117599Y-83087648D01*
X101117599Y-78899983D01*
X147199500Y-78899983D01*
X147199500Y-80100001D01*
X147199501Y-80100018D01*
X147210000Y-80202796D01*
X147210001Y-80202799D01*
X147257856Y-80347213D01*
X147265186Y-80369334D01*
X147357288Y-80518656D01*
X147481344Y-80642712D01*
X147630666Y-80734814D01*
X147797203Y-80789999D01*
X147899991Y-80800500D01*
X149100008Y-80800499D01*
X149202797Y-80789999D01*
X149369334Y-80734814D01*
X149518656Y-80642712D01*
X149587524Y-80573843D01*
X149648843Y-80540361D01*
X149718535Y-80545345D01*
X149748082Y-80561206D01*
X149818390Y-80612287D01*
X149904561Y-80656193D01*
X150000776Y-80705218D01*
X150000778Y-80705218D01*
X150000781Y-80705220D01*
X150091856Y-80734812D01*
X150195465Y-80768477D01*
X150296557Y-80784488D01*
X150397648Y-80800500D01*
X150397649Y-80800500D01*
X150602351Y-80800500D01*
X150602352Y-80800500D01*
X150804534Y-80768477D01*
X150999219Y-80705220D01*
X151181610Y-80612287D01*
X151274590Y-80544732D01*
X151347213Y-80491971D01*
X151347215Y-80491968D01*
X151347219Y-80491966D01*
X151491966Y-80347219D01*
X151491968Y-80347215D01*
X151491971Y-80347213D01*
X151596892Y-80202799D01*
X151612287Y-80181610D01*
X151705220Y-79999219D01*
X151768477Y-79804534D01*
X151800500Y-79602352D01*
X151800500Y-79397648D01*
X151768477Y-79195466D01*
X151705220Y-79000781D01*
X151705218Y-79000778D01*
X151705218Y-79000776D01*
X151653865Y-78899991D01*
X151612287Y-78818390D01*
X151596894Y-78797203D01*
X151491971Y-78652786D01*
X151347213Y-78508028D01*
X151181613Y-78387715D01*
X151181612Y-78387714D01*
X151181610Y-78387713D01*
X151121896Y-78357287D01*
X150999223Y-78294781D01*
X150804534Y-78231522D01*
X150629995Y-78203878D01*
X150602352Y-78199500D01*
X150397648Y-78199500D01*
X150373329Y-78203351D01*
X150195465Y-78231522D01*
X150000776Y-78294781D01*
X149818391Y-78387712D01*
X149818383Y-78387717D01*
X149748085Y-78438790D01*
X149682279Y-78462269D01*
X149614225Y-78446442D01*
X149587521Y-78426153D01*
X149518656Y-78357288D01*
X149443995Y-78311237D01*
X149369336Y-78265187D01*
X149369331Y-78265185D01*
X149367862Y-78264698D01*
X149202797Y-78210001D01*
X149202795Y-78210000D01*
X149100010Y-78199500D01*
X147899998Y-78199500D01*
X147899981Y-78199501D01*
X147797203Y-78210000D01*
X147797200Y-78210001D01*
X147630668Y-78265185D01*
X147630663Y-78265187D01*
X147481342Y-78357289D01*
X147357289Y-78481342D01*
X147265187Y-78630663D01*
X147265186Y-78630666D01*
X147210001Y-78797203D01*
X147210001Y-78797204D01*
X147210000Y-78797204D01*
X147199500Y-78899983D01*
X101117599Y-78899983D01*
X101117599Y-71202155D01*
X132935000Y-71202155D01*
X132935000Y-71750000D01*
X133679670Y-71750000D01*
X133659925Y-71769745D01*
X133610556Y-71855255D01*
X133585000Y-71950630D01*
X133585000Y-72049370D01*
X133610556Y-72144745D01*
X133659925Y-72230255D01*
X133679670Y-72250000D01*
X132935000Y-72250000D01*
X132935000Y-72797844D01*
X132941401Y-72857372D01*
X132941403Y-72857379D01*
X132991645Y-72992086D01*
X132991649Y-72992093D01*
X133077809Y-73107187D01*
X133077812Y-73107190D01*
X133192906Y-73193350D01*
X133192913Y-73193354D01*
X133327620Y-73243596D01*
X133327627Y-73243598D01*
X133387155Y-73249999D01*
X133387172Y-73250000D01*
X133710000Y-73250000D01*
X133710000Y-72280330D01*
X133729745Y-72300075D01*
X133815255Y-72349444D01*
X133910630Y-72375000D01*
X134009370Y-72375000D01*
X134104745Y-72349444D01*
X134190255Y-72300075D01*
X134204500Y-72285830D01*
X134204500Y-72326003D01*
X134204887Y-72327951D01*
X134207617Y-72341671D01*
X134210000Y-72365865D01*
X134210000Y-73250000D01*
X134532828Y-73250000D01*
X134532844Y-73249999D01*
X134592372Y-73243598D01*
X134592376Y-73243597D01*
X134727088Y-73193352D01*
X134727889Y-73192753D01*
X134728831Y-73192401D01*
X134734876Y-73189101D01*
X134735350Y-73189969D01*
X134737059Y-73189331D01*
X134744060Y-73182493D01*
X134769253Y-73177320D01*
X134793351Y-73168330D01*
X134804739Y-73170034D01*
X134812503Y-73168441D01*
X134842211Y-73175645D01*
X134846900Y-73176347D01*
X134848303Y-73176889D01*
X134930873Y-73211091D01*
X134943133Y-73213529D01*
X134953128Y-73217391D01*
X134953703Y-73217832D01*
X134955883Y-73218493D01*
X135047548Y-73256463D01*
X135168389Y-73280499D01*
X135168393Y-73280500D01*
X135168394Y-73280500D01*
X135291604Y-73280500D01*
X135291606Y-73280500D01*
X135412452Y-73256463D01*
X135504113Y-73218494D01*
X135527378Y-73211438D01*
X135529127Y-73211091D01*
X135715756Y-73133786D01*
X135796110Y-73080094D01*
X135862786Y-73059217D01*
X135930166Y-73077701D01*
X135933865Y-73080078D01*
X136014244Y-73133786D01*
X136014245Y-73133786D01*
X136014246Y-73133787D01*
X136056523Y-73151298D01*
X136200873Y-73211091D01*
X136364288Y-73243596D01*
X136398992Y-73250499D01*
X136398996Y-73250500D01*
X136398997Y-73250500D01*
X136601004Y-73250500D01*
X136601005Y-73250499D01*
X136799127Y-73211091D01*
X136985756Y-73133786D01*
X137153718Y-73021558D01*
X137296558Y-72878718D01*
X137408786Y-72710756D01*
X137486091Y-72524127D01*
X137525500Y-72326003D01*
X137525500Y-71673997D01*
X137486091Y-71475873D01*
X137408786Y-71289244D01*
X137408784Y-71289241D01*
X137408782Y-71289237D01*
X137296558Y-71121282D01*
X137296555Y-71121278D01*
X137227432Y-71052155D01*
X146560000Y-71052155D01*
X146560000Y-71750000D01*
X147584722Y-71750000D01*
X147540667Y-71826306D01*
X147510000Y-71940756D01*
X147510000Y-72059244D01*
X147540667Y-72173694D01*
X147584722Y-72250000D01*
X146560000Y-72250000D01*
X146560000Y-72947844D01*
X146566401Y-73007372D01*
X146566403Y-73007379D01*
X146616645Y-73142086D01*
X146616649Y-73142093D01*
X146702809Y-73257187D01*
X146702812Y-73257190D01*
X146817906Y-73343350D01*
X146817913Y-73343354D01*
X146952620Y-73393596D01*
X146952627Y-73393598D01*
X147012155Y-73399999D01*
X147012172Y-73400000D01*
X147710000Y-73400000D01*
X147710000Y-72375277D01*
X147786306Y-72419333D01*
X147900756Y-72450000D01*
X148019244Y-72450000D01*
X148133694Y-72419333D01*
X148210000Y-72375277D01*
X148210000Y-73400000D01*
X148907828Y-73400000D01*
X148907844Y-73399999D01*
X148967372Y-73393598D01*
X148967379Y-73393596D01*
X149102086Y-73343354D01*
X149102093Y-73343350D01*
X149217187Y-73257190D01*
X149217190Y-73257187D01*
X149303350Y-73142093D01*
X149303354Y-73142086D01*
X149333213Y-73062031D01*
X149375084Y-73006097D01*
X149440548Y-72981680D01*
X149508821Y-72996531D01*
X149537076Y-73017683D01*
X149587636Y-73068243D01*
X149587641Y-73068247D01*
X149735463Y-73175645D01*
X149765978Y-73197815D01*
X149868394Y-73249999D01*
X149962393Y-73297895D01*
X149962396Y-73297896D01*
X150067221Y-73331955D01*
X150172049Y-73366015D01*
X150389778Y-73400500D01*
X150389779Y-73400500D01*
X150610221Y-73400500D01*
X150610222Y-73400500D01*
X150827951Y-73366015D01*
X151037606Y-73297895D01*
X151234022Y-73197815D01*
X151412365Y-73068242D01*
X151568242Y-72912365D01*
X151697815Y-72734022D01*
X151797895Y-72537606D01*
X151866015Y-72327951D01*
X151900500Y-72110222D01*
X151900500Y-71889778D01*
X151866015Y-71672049D01*
X151831955Y-71567221D01*
X151797896Y-71462396D01*
X151797895Y-71462393D01*
X151763237Y-71394375D01*
X151697815Y-71265978D01*
X151651445Y-71202155D01*
X160935000Y-71202155D01*
X160935000Y-71750000D01*
X161679670Y-71750000D01*
X161659925Y-71769745D01*
X161610556Y-71855255D01*
X161585000Y-71950630D01*
X161585000Y-72049370D01*
X161610556Y-72144745D01*
X161659925Y-72230255D01*
X161679670Y-72250000D01*
X160935000Y-72250000D01*
X160935000Y-72797844D01*
X160941401Y-72857372D01*
X160941403Y-72857379D01*
X160991645Y-72992086D01*
X160991649Y-72992093D01*
X161077809Y-73107187D01*
X161077812Y-73107190D01*
X161192906Y-73193350D01*
X161192913Y-73193354D01*
X161327620Y-73243596D01*
X161327627Y-73243598D01*
X161387155Y-73249999D01*
X161387172Y-73250000D01*
X161710000Y-73250000D01*
X161710000Y-72280330D01*
X161729745Y-72300075D01*
X161815255Y-72349444D01*
X161910630Y-72375000D01*
X162009370Y-72375000D01*
X162104745Y-72349444D01*
X162190255Y-72300075D01*
X162204500Y-72285830D01*
X162204500Y-72326003D01*
X162204887Y-72327951D01*
X162207617Y-72341671D01*
X162210000Y-72365865D01*
X162210000Y-73250000D01*
X162532828Y-73250000D01*
X162532844Y-73249999D01*
X162592372Y-73243598D01*
X162592376Y-73243597D01*
X162727089Y-73193352D01*
X162727896Y-73192748D01*
X162728845Y-73192393D01*
X162734876Y-73189101D01*
X162735349Y-73189967D01*
X162793360Y-73168329D01*
X162849661Y-73177451D01*
X162930873Y-73211091D01*
X163094288Y-73243596D01*
X163128992Y-73250499D01*
X163128996Y-73250500D01*
X163128997Y-73250500D01*
X163331004Y-73250500D01*
X163331005Y-73250499D01*
X163529127Y-73211091D01*
X163715756Y-73133786D01*
X163796110Y-73080094D01*
X163862786Y-73059217D01*
X163930166Y-73077701D01*
X163933865Y-73080078D01*
X164014244Y-73133786D01*
X164014245Y-73133786D01*
X164014246Y-73133787D01*
X164056523Y-73151298D01*
X164200873Y-73211091D01*
X164364288Y-73243596D01*
X164398992Y-73250499D01*
X164398996Y-73250500D01*
X164398997Y-73250500D01*
X164601004Y-73250500D01*
X164601005Y-73250499D01*
X164799127Y-73211091D01*
X164985756Y-73133786D01*
X165153718Y-73021558D01*
X165296558Y-72878718D01*
X165408786Y-72710756D01*
X165486091Y-72524127D01*
X165525500Y-72326003D01*
X165525500Y-71673997D01*
X165486091Y-71475873D01*
X165408786Y-71289244D01*
X165408784Y-71289241D01*
X165408782Y-71289237D01*
X165296558Y-71121281D01*
X165153718Y-70978441D01*
X164985762Y-70866217D01*
X164985752Y-70866212D01*
X164799127Y-70788909D01*
X164799119Y-70788907D01*
X164601007Y-70749500D01*
X164601003Y-70749500D01*
X164398997Y-70749500D01*
X164398992Y-70749500D01*
X164200880Y-70788907D01*
X164200872Y-70788909D01*
X164014244Y-70866213D01*
X163933891Y-70919904D01*
X163867213Y-70940782D01*
X163799833Y-70922297D01*
X163796109Y-70919904D01*
X163715755Y-70866213D01*
X163529127Y-70788909D01*
X163529119Y-70788907D01*
X163331007Y-70749500D01*
X163331003Y-70749500D01*
X163128997Y-70749500D01*
X163128992Y-70749500D01*
X162930880Y-70788907D01*
X162930868Y-70788910D01*
X162849661Y-70822547D01*
X162780191Y-70830016D01*
X162735140Y-70810405D01*
X162734872Y-70810897D01*
X162729374Y-70807894D01*
X162727895Y-70807251D01*
X162727086Y-70806645D01*
X162592379Y-70756403D01*
X162592372Y-70756401D01*
X162532844Y-70750000D01*
X162210000Y-70750000D01*
X162210000Y-71634134D01*
X162207617Y-71658326D01*
X162204500Y-71673997D01*
X162204500Y-71714170D01*
X162190255Y-71699925D01*
X162104745Y-71650556D01*
X162009370Y-71625000D01*
X161910630Y-71625000D01*
X161815255Y-71650556D01*
X161729745Y-71699925D01*
X161710000Y-71719670D01*
X161710000Y-70750000D01*
X161387155Y-70750000D01*
X161327627Y-70756401D01*
X161327620Y-70756403D01*
X161192913Y-70806645D01*
X161192906Y-70806649D01*
X161077812Y-70892809D01*
X161077809Y-70892812D01*
X160991649Y-71007906D01*
X160991645Y-71007913D01*
X160941403Y-71142620D01*
X160941401Y-71142627D01*
X160935000Y-71202155D01*
X151651445Y-71202155D01*
X151592688Y-71121282D01*
X151568247Y-71087641D01*
X151568243Y-71087636D01*
X151412363Y-70931756D01*
X151412358Y-70931752D01*
X151234025Y-70802187D01*
X151234024Y-70802186D01*
X151234022Y-70802185D01*
X151144167Y-70756401D01*
X151037606Y-70702104D01*
X151037603Y-70702103D01*
X150827952Y-70633985D01*
X150719086Y-70616742D01*
X150610222Y-70599500D01*
X150389778Y-70599500D01*
X150317201Y-70610995D01*
X150172047Y-70633985D01*
X149962396Y-70702103D01*
X149962393Y-70702104D01*
X149765974Y-70802187D01*
X149587641Y-70931752D01*
X149587636Y-70931756D01*
X149537075Y-70982317D01*
X149475752Y-71015801D01*
X149406060Y-71010816D01*
X149350127Y-70968945D01*
X149333213Y-70937968D01*
X149303354Y-70857913D01*
X149303350Y-70857906D01*
X149217190Y-70742812D01*
X149217187Y-70742809D01*
X149102093Y-70656649D01*
X149102086Y-70656645D01*
X148967379Y-70606403D01*
X148967372Y-70606401D01*
X148907844Y-70600000D01*
X148210000Y-70600000D01*
X148210000Y-71624722D01*
X148133694Y-71580667D01*
X148019244Y-71550000D01*
X147900756Y-71550000D01*
X147786306Y-71580667D01*
X147710000Y-71624722D01*
X147710000Y-70600000D01*
X147012155Y-70600000D01*
X146952627Y-70606401D01*
X146952620Y-70606403D01*
X146817913Y-70656645D01*
X146817906Y-70656649D01*
X146702812Y-70742809D01*
X146702809Y-70742812D01*
X146616649Y-70857906D01*
X146616645Y-70857913D01*
X146566403Y-70992620D01*
X146566401Y-70992627D01*
X146560000Y-71052155D01*
X137227432Y-71052155D01*
X137153718Y-70978441D01*
X136985762Y-70866217D01*
X136985752Y-70866212D01*
X136799127Y-70788909D01*
X136799119Y-70788907D01*
X136601007Y-70749500D01*
X136601003Y-70749500D01*
X136398997Y-70749500D01*
X136398992Y-70749500D01*
X136200880Y-70788907D01*
X136200872Y-70788909D01*
X136014244Y-70866213D01*
X135933891Y-70919904D01*
X135867213Y-70940782D01*
X135799833Y-70922297D01*
X135796109Y-70919904D01*
X135715755Y-70866213D01*
X135529127Y-70788909D01*
X135529119Y-70788907D01*
X135331007Y-70749500D01*
X135331003Y-70749500D01*
X135128997Y-70749500D01*
X135128992Y-70749500D01*
X134930880Y-70788907D01*
X134930868Y-70788910D01*
X134849661Y-70822547D01*
X134780191Y-70830016D01*
X134735140Y-70810405D01*
X134734872Y-70810897D01*
X134729374Y-70807894D01*
X134727895Y-70807251D01*
X134727086Y-70806645D01*
X134592379Y-70756403D01*
X134592372Y-70756401D01*
X134532844Y-70750000D01*
X134210000Y-70750000D01*
X134210000Y-71634134D01*
X134207617Y-71658326D01*
X134204500Y-71673997D01*
X134204500Y-71714170D01*
X134190255Y-71699925D01*
X134104745Y-71650556D01*
X134009370Y-71625000D01*
X133910630Y-71625000D01*
X133815255Y-71650556D01*
X133729745Y-71699925D01*
X133710000Y-71719670D01*
X133710000Y-70750000D01*
X133387155Y-70750000D01*
X133327627Y-70756401D01*
X133327620Y-70756403D01*
X133192913Y-70806645D01*
X133192906Y-70806649D01*
X133077812Y-70892809D01*
X133077809Y-70892812D01*
X132991649Y-71007906D01*
X132991645Y-71007913D01*
X132941403Y-71142620D01*
X132941401Y-71142627D01*
X132935000Y-71202155D01*
X101117599Y-71202155D01*
X101117599Y-62897648D01*
X147199500Y-62897648D01*
X147199500Y-63102351D01*
X147231522Y-63304534D01*
X147294781Y-63499223D01*
X147387715Y-63681613D01*
X147508028Y-63847213D01*
X147652786Y-63991971D01*
X147765480Y-64073846D01*
X147818390Y-64112287D01*
X147934607Y-64171503D01*
X148000776Y-64205218D01*
X148000778Y-64205218D01*
X148000781Y-64205220D01*
X148091856Y-64234812D01*
X148195465Y-64268477D01*
X148296557Y-64284488D01*
X148397648Y-64300500D01*
X148397649Y-64300500D01*
X148602351Y-64300500D01*
X148602352Y-64300500D01*
X148804534Y-64268477D01*
X148999219Y-64205220D01*
X149181610Y-64112287D01*
X149251913Y-64061208D01*
X149317717Y-64037729D01*
X149385771Y-64053554D01*
X149412478Y-64073846D01*
X149481344Y-64142712D01*
X149630666Y-64234814D01*
X149797203Y-64289999D01*
X149899991Y-64300500D01*
X151100008Y-64300499D01*
X151202797Y-64289999D01*
X151369334Y-64234814D01*
X151518656Y-64142712D01*
X151642712Y-64018656D01*
X151734814Y-63869334D01*
X151789999Y-63702797D01*
X151800500Y-63600009D01*
X151800499Y-62399992D01*
X151789999Y-62297203D01*
X151734814Y-62130666D01*
X151642712Y-61981344D01*
X151518656Y-61857288D01*
X151369334Y-61765186D01*
X151202797Y-61710001D01*
X151202795Y-61710000D01*
X151100010Y-61699500D01*
X149899998Y-61699500D01*
X149899981Y-61699501D01*
X149797203Y-61710000D01*
X149797200Y-61710001D01*
X149630668Y-61765185D01*
X149630663Y-61765187D01*
X149481345Y-61857287D01*
X149412478Y-61926154D01*
X149351154Y-61959638D01*
X149281463Y-61954653D01*
X149251912Y-61938790D01*
X149181612Y-61887714D01*
X149181608Y-61887712D01*
X148999223Y-61794781D01*
X148804534Y-61731522D01*
X148629995Y-61703878D01*
X148602352Y-61699500D01*
X148397648Y-61699500D01*
X148373329Y-61703351D01*
X148195465Y-61731522D01*
X148000776Y-61794781D01*
X147818386Y-61887715D01*
X147652786Y-62008028D01*
X147508028Y-62152786D01*
X147387715Y-62318386D01*
X147294781Y-62500776D01*
X147231522Y-62695465D01*
X147199500Y-62897648D01*
X101117599Y-62897648D01*
X101117599Y-58552135D01*
X131869500Y-58552135D01*
X131869500Y-60447870D01*
X131869501Y-60447876D01*
X131875908Y-60507483D01*
X131926202Y-60642328D01*
X131926206Y-60642335D01*
X132012452Y-60757544D01*
X132012455Y-60757547D01*
X132127664Y-60843793D01*
X132127671Y-60843797D01*
X132262517Y-60894091D01*
X132262516Y-60894091D01*
X132269444Y-60894835D01*
X132322127Y-60900500D01*
X134217872Y-60900499D01*
X134277483Y-60894091D01*
X134412331Y-60843796D01*
X134527546Y-60757546D01*
X134613796Y-60642331D01*
X134641429Y-60568243D01*
X134643601Y-60562420D01*
X134685471Y-60506486D01*
X134750936Y-60482068D01*
X134819209Y-60496919D01*
X134847464Y-60518071D01*
X134897636Y-60568243D01*
X134897641Y-60568247D01*
X134999603Y-60642326D01*
X135075978Y-60697815D01*
X135204375Y-60763237D01*
X135272393Y-60797895D01*
X135272396Y-60797896D01*
X135377221Y-60831955D01*
X135482049Y-60866015D01*
X135699778Y-60900500D01*
X135699779Y-60900500D01*
X135920221Y-60900500D01*
X135920222Y-60900500D01*
X136137951Y-60866015D01*
X136347606Y-60797895D01*
X136544022Y-60697815D01*
X136722365Y-60568242D01*
X136878242Y-60412365D01*
X137007815Y-60234022D01*
X137107895Y-60037606D01*
X137176015Y-59827951D01*
X137210500Y-59610222D01*
X137210500Y-59389778D01*
X137176015Y-59172049D01*
X137107895Y-58962394D01*
X137107895Y-58962393D01*
X137073237Y-58894375D01*
X137007815Y-58765978D01*
X136949501Y-58685715D01*
X136902986Y-58621691D01*
X136878247Y-58587641D01*
X136878243Y-58587636D01*
X136842742Y-58552135D01*
X160829500Y-58552135D01*
X160829500Y-60447870D01*
X160829501Y-60447876D01*
X160835908Y-60507483D01*
X160886202Y-60642328D01*
X160886206Y-60642335D01*
X160972452Y-60757544D01*
X160972455Y-60757547D01*
X161087664Y-60843793D01*
X161087671Y-60843797D01*
X161222517Y-60894091D01*
X161222516Y-60894091D01*
X161229444Y-60894835D01*
X161282127Y-60900500D01*
X163177872Y-60900499D01*
X163237483Y-60894091D01*
X163372331Y-60843796D01*
X163487546Y-60757546D01*
X163573796Y-60642331D01*
X163601429Y-60568243D01*
X163603601Y-60562420D01*
X163645471Y-60506486D01*
X163710936Y-60482068D01*
X163779209Y-60496919D01*
X163807464Y-60518071D01*
X163857636Y-60568243D01*
X163857641Y-60568247D01*
X163959603Y-60642326D01*
X164035978Y-60697815D01*
X164164375Y-60763237D01*
X164232393Y-60797895D01*
X164232396Y-60797896D01*
X164337221Y-60831955D01*
X164442049Y-60866015D01*
X164659778Y-60900500D01*
X164659779Y-60900500D01*
X164880221Y-60900500D01*
X164880222Y-60900500D01*
X165097951Y-60866015D01*
X165307606Y-60797895D01*
X165504022Y-60697815D01*
X165682365Y-60568242D01*
X165838242Y-60412365D01*
X165967815Y-60234022D01*
X166067895Y-60037606D01*
X166136015Y-59827951D01*
X166170500Y-59610222D01*
X166170500Y-59389778D01*
X166136015Y-59172049D01*
X166067895Y-58962394D01*
X166067895Y-58962393D01*
X166033237Y-58894375D01*
X165967815Y-58765978D01*
X165862985Y-58621691D01*
X165838247Y-58587641D01*
X165838243Y-58587636D01*
X165682363Y-58431756D01*
X165682358Y-58431752D01*
X165504025Y-58302187D01*
X165504024Y-58302186D01*
X165504022Y-58302185D01*
X165386791Y-58242452D01*
X165307606Y-58202104D01*
X165307603Y-58202103D01*
X165097952Y-58133985D01*
X164989086Y-58116742D01*
X164880222Y-58099500D01*
X164659778Y-58099500D01*
X164587201Y-58110995D01*
X164442047Y-58133985D01*
X164232396Y-58202103D01*
X164232393Y-58202104D01*
X164035974Y-58302187D01*
X163857641Y-58431752D01*
X163857636Y-58431756D01*
X163807463Y-58481929D01*
X163746140Y-58515413D01*
X163676448Y-58510428D01*
X163620515Y-58468557D01*
X163603601Y-58437580D01*
X163573797Y-58357671D01*
X163573793Y-58357664D01*
X163487547Y-58242455D01*
X163487544Y-58242452D01*
X163372335Y-58156206D01*
X163372328Y-58156202D01*
X163237482Y-58105908D01*
X163237483Y-58105908D01*
X163177883Y-58099501D01*
X163177881Y-58099500D01*
X163177873Y-58099500D01*
X163177864Y-58099500D01*
X161282129Y-58099500D01*
X161282123Y-58099501D01*
X161222516Y-58105908D01*
X161087671Y-58156202D01*
X161087664Y-58156206D01*
X160972455Y-58242452D01*
X160972452Y-58242455D01*
X160886206Y-58357664D01*
X160886202Y-58357671D01*
X160835908Y-58492517D01*
X160829501Y-58552116D01*
X160829500Y-58552135D01*
X136842742Y-58552135D01*
X136722363Y-58431756D01*
X136722358Y-58431752D01*
X136544025Y-58302187D01*
X136544024Y-58302186D01*
X136544022Y-58302185D01*
X136426791Y-58242452D01*
X136347606Y-58202104D01*
X136347603Y-58202103D01*
X136137952Y-58133985D01*
X136029086Y-58116742D01*
X135920222Y-58099500D01*
X135699778Y-58099500D01*
X135627201Y-58110995D01*
X135482047Y-58133985D01*
X135272396Y-58202103D01*
X135272393Y-58202104D01*
X135075974Y-58302187D01*
X134897641Y-58431752D01*
X134897636Y-58431756D01*
X134847463Y-58481929D01*
X134786140Y-58515413D01*
X134716448Y-58510428D01*
X134660515Y-58468557D01*
X134643601Y-58437580D01*
X134613797Y-58357671D01*
X134613793Y-58357664D01*
X134527547Y-58242455D01*
X134527544Y-58242452D01*
X134412335Y-58156206D01*
X134412328Y-58156202D01*
X134277482Y-58105908D01*
X134277483Y-58105908D01*
X134217883Y-58099501D01*
X134217881Y-58099500D01*
X134217873Y-58099500D01*
X134217864Y-58099500D01*
X132322129Y-58099500D01*
X132322123Y-58099501D01*
X132262516Y-58105908D01*
X132127671Y-58156202D01*
X132127664Y-58156206D01*
X132012455Y-58242452D01*
X132012452Y-58242455D01*
X131926206Y-58357664D01*
X131926202Y-58357671D01*
X131875908Y-58492517D01*
X131869501Y-58552116D01*
X131869500Y-58552135D01*
X101117599Y-58552135D01*
X101117599Y-50198580D01*
X101123427Y-50178729D01*
X101124405Y-50158065D01*
X101136246Y-50135074D01*
X101137284Y-50131541D01*
X101140542Y-50126723D01*
X101256116Y-49964303D01*
X101263179Y-49955293D01*
X101505107Y-49674552D01*
X101513002Y-49666209D01*
X101779889Y-49409121D01*
X101788508Y-49401556D01*
X102078100Y-49170295D01*
X102087381Y-49163563D01*
X102397147Y-48960150D01*
X102407033Y-48954295D01*
X102734326Y-48780466D01*
X102744711Y-48775554D01*
X103086693Y-48632818D01*
X103097457Y-48628900D01*
X103451235Y-48518463D01*
X103462326Y-48515559D01*
X103824781Y-48438398D01*
X103836128Y-48436528D01*
X104204160Y-48393297D01*
X104215623Y-48392487D01*
X104586103Y-48383555D01*
X104597576Y-48383811D01*
X104967282Y-48409257D01*
X104978671Y-48410573D01*
X105344435Y-48470179D01*
X105355693Y-48472555D01*
X105507256Y-48511961D01*
X105714332Y-48565800D01*
X105725307Y-48569205D01*
X106073769Y-48695295D01*
X106084385Y-48699703D01*
X106419645Y-48857543D01*
X106429803Y-48862914D01*
X106746807Y-49049863D01*
X106749010Y-49051162D01*
X106758636Y-49057459D01*
X107059005Y-49274473D01*
X107067999Y-49281629D01*
X107310227Y-49493432D01*
X107346962Y-49525553D01*
X107355260Y-49533519D01*
X107610408Y-49802243D01*
X107617924Y-49810932D01*
X107704409Y-49920847D01*
X107848034Y-50103384D01*
X107851423Y-50107900D01*
X107851895Y-50108560D01*
X107884920Y-50155960D01*
X107887174Y-50157860D01*
X107888914Y-50160292D01*
X107936942Y-50199830D01*
X107938014Y-50200723D01*
X107985675Y-50240905D01*
X107985677Y-50240905D01*
X107988714Y-50242851D01*
X107988715Y-50242852D01*
X107990450Y-50243963D01*
X108008787Y-50252305D01*
X108047304Y-50269827D01*
X108048419Y-50270342D01*
X108104981Y-50296879D01*
X108104983Y-50296879D01*
X108108321Y-50297941D01*
X108108379Y-50297959D01*
X108110383Y-50298596D01*
X108171837Y-50308837D01*
X108173219Y-50309075D01*
X108234709Y-50320067D01*
X108234715Y-50320066D01*
X108238152Y-50320225D01*
X108238193Y-50320227D01*
X108240366Y-50320327D01*
X108249083Y-50319481D01*
X108302474Y-50314304D01*
X108303811Y-50314183D01*
X108332537Y-50311737D01*
X108366009Y-50308889D01*
X108366010Y-50308888D01*
X108366018Y-50308888D01*
X108366024Y-50308885D01*
X108369486Y-50308127D01*
X108369545Y-50308114D01*
X108371557Y-50307672D01*
X108371788Y-50307585D01*
X108371792Y-50307585D01*
X108430120Y-50285732D01*
X108431189Y-50285339D01*
X108489960Y-50264105D01*
X108489969Y-50264098D01*
X108493077Y-50262490D01*
X108493078Y-50262489D01*
X108493112Y-50262472D01*
X108494997Y-50261496D01*
X108495197Y-50261353D01*
X108495200Y-50261352D01*
X108545823Y-50225191D01*
X108546939Y-50224405D01*
X108598081Y-50188775D01*
X108598081Y-50188774D01*
X108598088Y-50188770D01*
X108598093Y-50188764D01*
X108600714Y-50186374D01*
X108600714Y-50186373D01*
X108600726Y-50186363D01*
X108602282Y-50184943D01*
X108606829Y-50179420D01*
X108639415Y-50139834D01*
X108642839Y-50135850D01*
X108983380Y-49756514D01*
X108988672Y-49750975D01*
X109351828Y-49393814D01*
X109357453Y-49388617D01*
X109742081Y-49054719D01*
X109748026Y-49049874D01*
X110056001Y-48814415D01*
X145249500Y-48814415D01*
X145249500Y-49185584D01*
X145281849Y-49555332D01*
X145318921Y-49765575D01*
X145344378Y-49909950D01*
X145346300Y-49920847D01*
X145346303Y-49920860D01*
X145442362Y-50279361D01*
X145569306Y-50628140D01*
X145726164Y-50964522D01*
X145726172Y-50964538D01*
X145856614Y-51190470D01*
X145911750Y-51285968D01*
X145911754Y-51285974D01*
X145911761Y-51285985D01*
X146124639Y-51590006D01*
X146151077Y-51621513D01*
X146363217Y-51874332D01*
X146625668Y-52136783D01*
X146743889Y-52235982D01*
X146909993Y-52375360D01*
X147214014Y-52588238D01*
X147214021Y-52588242D01*
X147214032Y-52588250D01*
X147535468Y-52773831D01*
X147535477Y-52773835D01*
X147871859Y-52930693D01*
X148132566Y-53025582D01*
X148220632Y-53057635D01*
X148220633Y-53057635D01*
X148220638Y-53057637D01*
X148333267Y-53087815D01*
X148579147Y-53153699D01*
X148944670Y-53218151D01*
X149314417Y-53250499D01*
X149314418Y-53250500D01*
X149314419Y-53250500D01*
X149685582Y-53250500D01*
X149685582Y-53250499D01*
X150055330Y-53218151D01*
X150420853Y-53153699D01*
X150779368Y-53057635D01*
X151108770Y-52937743D01*
X151128140Y-52930693D01*
X151128141Y-52930692D01*
X151128145Y-52930691D01*
X151464532Y-52773831D01*
X151785968Y-52588250D01*
X152090005Y-52375361D01*
X152374332Y-52136783D01*
X152636783Y-51874332D01*
X152875361Y-51590005D01*
X153088250Y-51285968D01*
X153273831Y-50964532D01*
X153430691Y-50628145D01*
X153438890Y-50605620D01*
X153462110Y-50541821D01*
X153557635Y-50279368D01*
X153560202Y-50269790D01*
X153582553Y-50186373D01*
X153653699Y-49920853D01*
X153718151Y-49555330D01*
X153750500Y-49185581D01*
X153750500Y-48814419D01*
X153718151Y-48444670D01*
X153653699Y-48079147D01*
X153557635Y-47720632D01*
X153506276Y-47579523D01*
X153430693Y-47371859D01*
X153326249Y-47147879D01*
X153273831Y-47035468D01*
X153088250Y-46714032D01*
X153088242Y-46714021D01*
X153088238Y-46714014D01*
X152875360Y-46409993D01*
X152685668Y-46183927D01*
X152636783Y-46125668D01*
X152374332Y-45863217D01*
X152281648Y-45785446D01*
X152090006Y-45624639D01*
X151785985Y-45411761D01*
X151785974Y-45411754D01*
X151785968Y-45411750D01*
X151680696Y-45350971D01*
X151464538Y-45226172D01*
X151464522Y-45226164D01*
X151128140Y-45069306D01*
X150779361Y-44942362D01*
X150420860Y-44846303D01*
X150420863Y-44846303D01*
X150420853Y-44846301D01*
X150297640Y-44824575D01*
X150055332Y-44781849D01*
X149685584Y-44749500D01*
X149685581Y-44749500D01*
X149314419Y-44749500D01*
X149314415Y-44749500D01*
X148944667Y-44781849D01*
X148579152Y-44846300D01*
X148579149Y-44846300D01*
X148579147Y-44846301D01*
X148579142Y-44846302D01*
X148579139Y-44846303D01*
X148220638Y-44942362D01*
X147871859Y-45069306D01*
X147535477Y-45226164D01*
X147535461Y-45226172D01*
X147214040Y-45411745D01*
X147214014Y-45411761D01*
X146909993Y-45624639D01*
X146625665Y-45863219D01*
X146363219Y-46125665D01*
X146124639Y-46409993D01*
X145911761Y-46714014D01*
X145911745Y-46714040D01*
X145726172Y-47035461D01*
X145726164Y-47035477D01*
X145569306Y-47371859D01*
X145442362Y-47720638D01*
X145346303Y-48079139D01*
X145346300Y-48079152D01*
X145281849Y-48444667D01*
X145249500Y-48814415D01*
X110056001Y-48814415D01*
X110152660Y-48740515D01*
X110158878Y-48736059D01*
X110581963Y-48452426D01*
X110588452Y-48448362D01*
X111028340Y-48191562D01*
X111035073Y-48187907D01*
X111490053Y-47958938D01*
X111497005Y-47955706D01*
X111965324Y-47755448D01*
X111972485Y-47752646D01*
X112452328Y-47581875D01*
X112459637Y-47579527D01*
X112949164Y-47438894D01*
X112956603Y-47437005D01*
X113453948Y-47327052D01*
X113461465Y-47325634D01*
X113964662Y-47246793D01*
X113972293Y-47245840D01*
X114479402Y-47198415D01*
X114487075Y-47197937D01*
X114998070Y-47182048D01*
X115001924Y-47181989D01*
X115065892Y-47181989D01*
X136934108Y-47181989D01*
X137994189Y-47181989D01*
X138054251Y-47183384D01*
X138059987Y-47181989D01*
X138065892Y-47181989D01*
X138122545Y-47166809D01*
X138122546Y-47166809D01*
X138123933Y-47166437D01*
X138182303Y-47152242D01*
X138187480Y-47149409D01*
X138193179Y-47147883D01*
X138193179Y-47147882D01*
X138193186Y-47147881D01*
X138244033Y-47118523D01*
X138246380Y-47117204D01*
X138297931Y-47089018D01*
X138297936Y-47089012D01*
X138302628Y-47085582D01*
X138307301Y-47081996D01*
X138307314Y-47081989D01*
X138348805Y-47040496D01*
X138350778Y-47038568D01*
X138393255Y-46998021D01*
X138393259Y-46998012D01*
X138396945Y-46993434D01*
X138400496Y-46988806D01*
X138400500Y-46988803D01*
X138414462Y-46964620D01*
X138429821Y-46938018D01*
X138429821Y-46938016D01*
X138430539Y-46936773D01*
X138461780Y-46885454D01*
X138463440Y-46879787D01*
X138466392Y-46874675D01*
X138479833Y-46824510D01*
X138482337Y-46816309D01*
X138603416Y-46463907D01*
X138607590Y-46453360D01*
X138760721Y-46113007D01*
X138765847Y-46102885D01*
X138949531Y-45778038D01*
X138955570Y-45768417D01*
X139168276Y-45461779D01*
X139175182Y-45452742D01*
X139415092Y-45166931D01*
X139422789Y-45158570D01*
X139687932Y-44895935D01*
X139696352Y-44888328D01*
X139984472Y-44651109D01*
X139993543Y-44644315D01*
X140302198Y-44434525D01*
X140311876Y-44428578D01*
X140638461Y-44247984D01*
X140648633Y-44242955D01*
X140897693Y-44133732D01*
X140990389Y-44093082D01*
X141001009Y-44088994D01*
X141355086Y-43971089D01*
X141365996Y-43968005D01*
X141729396Y-43883070D01*
X141740571Y-43880994D01*
X142110214Y-43829747D01*
X142121532Y-43828704D01*
X142472710Y-43812566D01*
X142497128Y-43811444D01*
X142502820Y-43811313D01*
X155903381Y-43811313D01*
X155906058Y-43811665D01*
G37*
%TD.AperFunction*%
%TD*%
M02*
