%TF.GenerationSoftware,KiCad,Pcbnew,10.0.4*%
%TF.CreationDate,2026-07-16T01:24:09+03:00*%
%TF.ProjectId,Summer_project,53756d6d-6572-45f7-9072-6f6a6563742e,rev?*%
%TF.SameCoordinates,Original*%
%TF.FileFunction,Copper,L1,Top*%
%TF.FilePolarity,Positive*%
%FSLAX46Y46*%
G04 Gerber Fmt 4.6, Leading zero omitted, Abs format (unit mm)*
G04 Created by KiCad (PCBNEW 10.0.4) date 2026-07-16 01:24:09*
%MOMM*%
%LPD*%
G01*
G04 APERTURE LIST*
G04 Aperture macros list*
%AMRoundRect*
0 Rectangle with rounded corners*
0 $1 Rounding radius*
0 $2 $3 $4 $5 $6 $7 $8 $9 X,Y pos of 4 corners*
0 Add a 4 corners polygon primitive as box body*
4,1,4,$2,$3,$4,$5,$6,$7,$8,$9,$2,$3,0*
0 Add four circle primitives for the rounded corners*
1,1,$1+$1,$2,$3*
1,1,$1+$1,$4,$5*
1,1,$1+$1,$6,$7*
1,1,$1+$1,$8,$9*
0 Add four rect primitives between the rounded corners*
20,1,$1+$1,$2,$3,$4,$5,0*
20,1,$1+$1,$4,$5,$6,$7,0*
20,1,$1+$1,$6,$7,$8,$9,0*
20,1,$1+$1,$8,$9,$2,$3,0*%
G04 Aperture macros list end*
%ADD10C,0.300000*%
%TA.AperFunction,NonConductor*%
%ADD11C,0.300000*%
%TD*%
%TA.AperFunction,ComponentPad*%
%ADD12R,1.800000X1.800000*%
%TD*%
%TA.AperFunction,ComponentPad*%
%ADD13C,1.800000*%
%TD*%
%TA.AperFunction,ComponentPad*%
%ADD14C,1.600000*%
%TD*%
%TA.AperFunction,ComponentPad*%
%ADD15C,2.000000*%
%TD*%
%TA.AperFunction,ComponentPad*%
%ADD16C,7.500000*%
%TD*%
%TA.AperFunction,ComponentPad*%
%ADD17RoundRect,0.250000X-0.550000X-0.550000X0.550000X-0.550000X0.550000X0.550000X-0.550000X0.550000X0*%
%TD*%
%TA.AperFunction,ComponentPad*%
%ADD18R,1.050000X1.500000*%
%TD*%
%TA.AperFunction,ComponentPad*%
%ADD19O,1.050000X1.500000*%
%TD*%
%TA.AperFunction,ComponentPad*%
%ADD20C,2.600000*%
%TD*%
%TA.AperFunction,ComponentPad*%
%ADD21RoundRect,0.250000X0.550000X0.550000X-0.550000X0.550000X-0.550000X-0.550000X0.550000X-0.550000X0*%
%TD*%
%TA.AperFunction,Conductor*%
%ADD22C,0.250000*%
%TD*%
%TA.AperFunction,Conductor*%
%ADD23C,0.200000*%
%TD*%
G04 APERTURE END LIST*
D10*
D11*
X113768796Y-120550828D02*
X114625939Y-120550828D01*
X114009868Y-122050828D02*
X114197368Y-120550828D01*
X114938439Y-122050828D02*
X115125939Y-120550828D01*
X115581296Y-122050828D02*
X115679510Y-121265114D01*
X115679510Y-121265114D02*
X115625939Y-121122257D01*
X115625939Y-121122257D02*
X115492010Y-121050828D01*
X115492010Y-121050828D02*
X115277725Y-121050828D01*
X115277725Y-121050828D02*
X115125939Y-121122257D01*
X115125939Y-121122257D02*
X115045582Y-121193685D01*
X116295582Y-122050828D02*
X116420582Y-121050828D01*
X116483082Y-120550828D02*
X116402725Y-120622257D01*
X116402725Y-120622257D02*
X116465225Y-120693685D01*
X116465225Y-120693685D02*
X116545582Y-120622257D01*
X116545582Y-120622257D02*
X116483082Y-120550828D01*
X116483082Y-120550828D02*
X116465225Y-120693685D01*
X116947368Y-121979400D02*
X117081296Y-122050828D01*
X117081296Y-122050828D02*
X117367011Y-122050828D01*
X117367011Y-122050828D02*
X117518796Y-121979400D01*
X117518796Y-121979400D02*
X117608082Y-121836542D01*
X117608082Y-121836542D02*
X117617011Y-121765114D01*
X117617011Y-121765114D02*
X117563439Y-121622257D01*
X117563439Y-121622257D02*
X117429511Y-121550828D01*
X117429511Y-121550828D02*
X117215225Y-121550828D01*
X117215225Y-121550828D02*
X117081296Y-121479400D01*
X117081296Y-121479400D02*
X117027725Y-121336542D01*
X117027725Y-121336542D02*
X117036654Y-121265114D01*
X117036654Y-121265114D02*
X117125939Y-121122257D01*
X117125939Y-121122257D02*
X117277725Y-121050828D01*
X117277725Y-121050828D02*
X117492011Y-121050828D01*
X117492011Y-121050828D02*
X117625939Y-121122257D01*
X119367011Y-122050828D02*
X119554511Y-120550828D01*
X119483082Y-121122257D02*
X119634868Y-121050828D01*
X119634868Y-121050828D02*
X119920582Y-121050828D01*
X119920582Y-121050828D02*
X120054511Y-121122257D01*
X120054511Y-121122257D02*
X120117011Y-121193685D01*
X120117011Y-121193685D02*
X120170582Y-121336542D01*
X120170582Y-121336542D02*
X120117011Y-121765114D01*
X120117011Y-121765114D02*
X120027725Y-121907971D01*
X120027725Y-121907971D02*
X119947368Y-121979400D01*
X119947368Y-121979400D02*
X119795582Y-122050828D01*
X119795582Y-122050828D02*
X119509868Y-122050828D01*
X119509868Y-122050828D02*
X119375939Y-121979400D01*
X121367011Y-122050828D02*
X121465225Y-121265114D01*
X121465225Y-121265114D02*
X121411654Y-121122257D01*
X121411654Y-121122257D02*
X121277725Y-121050828D01*
X121277725Y-121050828D02*
X120992011Y-121050828D01*
X120992011Y-121050828D02*
X120840225Y-121122257D01*
X121375940Y-121979400D02*
X121224154Y-122050828D01*
X121224154Y-122050828D02*
X120867011Y-122050828D01*
X120867011Y-122050828D02*
X120733082Y-121979400D01*
X120733082Y-121979400D02*
X120679511Y-121836542D01*
X120679511Y-121836542D02*
X120697368Y-121693685D01*
X120697368Y-121693685D02*
X120786654Y-121550828D01*
X120786654Y-121550828D02*
X120938440Y-121479400D01*
X120938440Y-121479400D02*
X121295582Y-121479400D01*
X121295582Y-121479400D02*
X121447368Y-121407971D01*
X122724154Y-122050828D02*
X122911654Y-120550828D01*
X122733083Y-121979400D02*
X122581297Y-122050828D01*
X122581297Y-122050828D02*
X122295583Y-122050828D01*
X122295583Y-122050828D02*
X122161654Y-121979400D01*
X122161654Y-121979400D02*
X122099154Y-121907971D01*
X122099154Y-121907971D02*
X122045583Y-121765114D01*
X122045583Y-121765114D02*
X122099154Y-121336542D01*
X122099154Y-121336542D02*
X122188440Y-121193685D01*
X122188440Y-121193685D02*
X122268797Y-121122257D01*
X122268797Y-121122257D02*
X122420583Y-121050828D01*
X122420583Y-121050828D02*
X122706297Y-121050828D01*
X122706297Y-121050828D02*
X122840225Y-121122257D01*
X124206297Y-121050828D02*
X124054511Y-122265114D01*
X124054511Y-122265114D02*
X123965226Y-122407971D01*
X123965226Y-122407971D02*
X123884868Y-122479400D01*
X123884868Y-122479400D02*
X123733083Y-122550828D01*
X123733083Y-122550828D02*
X123518797Y-122550828D01*
X123518797Y-122550828D02*
X123384868Y-122479400D01*
X124090226Y-121979400D02*
X123938440Y-122050828D01*
X123938440Y-122050828D02*
X123652726Y-122050828D01*
X123652726Y-122050828D02*
X123518797Y-121979400D01*
X123518797Y-121979400D02*
X123456297Y-121907971D01*
X123456297Y-121907971D02*
X123402726Y-121765114D01*
X123402726Y-121765114D02*
X123456297Y-121336542D01*
X123456297Y-121336542D02*
X123545583Y-121193685D01*
X123545583Y-121193685D02*
X123625940Y-121122257D01*
X123625940Y-121122257D02*
X123777726Y-121050828D01*
X123777726Y-121050828D02*
X124063440Y-121050828D01*
X124063440Y-121050828D02*
X124197368Y-121122257D01*
X125375940Y-121979400D02*
X125224154Y-122050828D01*
X125224154Y-122050828D02*
X124938440Y-122050828D01*
X124938440Y-122050828D02*
X124804511Y-121979400D01*
X124804511Y-121979400D02*
X124750940Y-121836542D01*
X124750940Y-121836542D02*
X124822369Y-121265114D01*
X124822369Y-121265114D02*
X124911654Y-121122257D01*
X124911654Y-121122257D02*
X125063440Y-121050828D01*
X125063440Y-121050828D02*
X125349154Y-121050828D01*
X125349154Y-121050828D02*
X125483083Y-121122257D01*
X125483083Y-121122257D02*
X125536654Y-121265114D01*
X125536654Y-121265114D02*
X125518797Y-121407971D01*
X125518797Y-121407971D02*
X124786654Y-121550828D01*
X127224154Y-122050828D02*
X127411654Y-120550828D01*
X127340225Y-121122257D02*
X127492011Y-121050828D01*
X127492011Y-121050828D02*
X127777725Y-121050828D01*
X127777725Y-121050828D02*
X127911654Y-121122257D01*
X127911654Y-121122257D02*
X127974154Y-121193685D01*
X127974154Y-121193685D02*
X128027725Y-121336542D01*
X128027725Y-121336542D02*
X127974154Y-121765114D01*
X127974154Y-121765114D02*
X127884868Y-121907971D01*
X127884868Y-121907971D02*
X127804511Y-121979400D01*
X127804511Y-121979400D02*
X127652725Y-122050828D01*
X127652725Y-122050828D02*
X127367011Y-122050828D01*
X127367011Y-122050828D02*
X127233082Y-121979400D01*
X129161654Y-121979400D02*
X129009868Y-122050828D01*
X129009868Y-122050828D02*
X128724154Y-122050828D01*
X128724154Y-122050828D02*
X128590225Y-121979400D01*
X128590225Y-121979400D02*
X128536654Y-121836542D01*
X128536654Y-121836542D02*
X128608083Y-121265114D01*
X128608083Y-121265114D02*
X128697368Y-121122257D01*
X128697368Y-121122257D02*
X128849154Y-121050828D01*
X128849154Y-121050828D02*
X129134868Y-121050828D01*
X129134868Y-121050828D02*
X129268797Y-121122257D01*
X129268797Y-121122257D02*
X129322368Y-121265114D01*
X129322368Y-121265114D02*
X129304511Y-121407971D01*
X129304511Y-121407971D02*
X128572368Y-121550828D01*
X130081297Y-122050828D02*
X129947368Y-121979400D01*
X129947368Y-121979400D02*
X129893797Y-121836542D01*
X129893797Y-121836542D02*
X130054511Y-120550828D01*
X130867011Y-122050828D02*
X130733082Y-121979400D01*
X130733082Y-121979400D02*
X130670582Y-121907971D01*
X130670582Y-121907971D02*
X130617011Y-121765114D01*
X130617011Y-121765114D02*
X130670582Y-121336542D01*
X130670582Y-121336542D02*
X130759868Y-121193685D01*
X130759868Y-121193685D02*
X130840225Y-121122257D01*
X130840225Y-121122257D02*
X130992011Y-121050828D01*
X130992011Y-121050828D02*
X131206296Y-121050828D01*
X131206296Y-121050828D02*
X131340225Y-121122257D01*
X131340225Y-121122257D02*
X131402725Y-121193685D01*
X131402725Y-121193685D02*
X131456296Y-121336542D01*
X131456296Y-121336542D02*
X131402725Y-121765114D01*
X131402725Y-121765114D02*
X131313439Y-121907971D01*
X131313439Y-121907971D02*
X131233082Y-121979400D01*
X131233082Y-121979400D02*
X131081296Y-122050828D01*
X131081296Y-122050828D02*
X130867011Y-122050828D01*
X132134868Y-121050828D02*
X132009868Y-122050828D01*
X132117011Y-121193685D02*
X132197368Y-121122257D01*
X132197368Y-121122257D02*
X132349154Y-121050828D01*
X132349154Y-121050828D02*
X132563439Y-121050828D01*
X132563439Y-121050828D02*
X132697368Y-121122257D01*
X132697368Y-121122257D02*
X132750939Y-121265114D01*
X132750939Y-121265114D02*
X132652725Y-122050828D01*
X134134868Y-121050828D02*
X133983082Y-122265114D01*
X133983082Y-122265114D02*
X133893797Y-122407971D01*
X133893797Y-122407971D02*
X133813439Y-122479400D01*
X133813439Y-122479400D02*
X133661654Y-122550828D01*
X133661654Y-122550828D02*
X133447368Y-122550828D01*
X133447368Y-122550828D02*
X133313439Y-122479400D01*
X134018797Y-121979400D02*
X133867011Y-122050828D01*
X133867011Y-122050828D02*
X133581297Y-122050828D01*
X133581297Y-122050828D02*
X133447368Y-121979400D01*
X133447368Y-121979400D02*
X133384868Y-121907971D01*
X133384868Y-121907971D02*
X133331297Y-121765114D01*
X133331297Y-121765114D02*
X133384868Y-121336542D01*
X133384868Y-121336542D02*
X133474154Y-121193685D01*
X133474154Y-121193685D02*
X133554511Y-121122257D01*
X133554511Y-121122257D02*
X133706297Y-121050828D01*
X133706297Y-121050828D02*
X133992011Y-121050828D01*
X133992011Y-121050828D02*
X134125939Y-121122257D01*
X134661654Y-121979400D02*
X134795582Y-122050828D01*
X134795582Y-122050828D02*
X135081297Y-122050828D01*
X135081297Y-122050828D02*
X135233082Y-121979400D01*
X135233082Y-121979400D02*
X135322368Y-121836542D01*
X135322368Y-121836542D02*
X135331297Y-121765114D01*
X135331297Y-121765114D02*
X135277725Y-121622257D01*
X135277725Y-121622257D02*
X135143797Y-121550828D01*
X135143797Y-121550828D02*
X134929511Y-121550828D01*
X134929511Y-121550828D02*
X134795582Y-121479400D01*
X134795582Y-121479400D02*
X134742011Y-121336542D01*
X134742011Y-121336542D02*
X134750940Y-121265114D01*
X134750940Y-121265114D02*
X134840225Y-121122257D01*
X134840225Y-121122257D02*
X134992011Y-121050828D01*
X134992011Y-121050828D02*
X135206297Y-121050828D01*
X135206297Y-121050828D02*
X135340225Y-121122257D01*
X136992011Y-121050828D02*
X137563440Y-121050828D01*
X137268797Y-120550828D02*
X137108083Y-121836542D01*
X137108083Y-121836542D02*
X137161654Y-121979400D01*
X137161654Y-121979400D02*
X137295583Y-122050828D01*
X137295583Y-122050828D02*
X137438440Y-122050828D01*
X138152726Y-122050828D02*
X138018797Y-121979400D01*
X138018797Y-121979400D02*
X137956297Y-121907971D01*
X137956297Y-121907971D02*
X137902726Y-121765114D01*
X137902726Y-121765114D02*
X137956297Y-121336542D01*
X137956297Y-121336542D02*
X138045583Y-121193685D01*
X138045583Y-121193685D02*
X138125940Y-121122257D01*
X138125940Y-121122257D02*
X138277726Y-121050828D01*
X138277726Y-121050828D02*
X138492011Y-121050828D01*
X138492011Y-121050828D02*
X138625940Y-121122257D01*
X138625940Y-121122257D02*
X138688440Y-121193685D01*
X138688440Y-121193685D02*
X138742011Y-121336542D01*
X138742011Y-121336542D02*
X138688440Y-121765114D01*
X138688440Y-121765114D02*
X138599154Y-121907971D01*
X138599154Y-121907971D02*
X138518797Y-121979400D01*
X138518797Y-121979400D02*
X138367011Y-122050828D01*
X138367011Y-122050828D02*
X138152726Y-122050828D01*
X139313440Y-121907971D02*
X139375940Y-121979400D01*
X139375940Y-121979400D02*
X139295583Y-122050828D01*
X139295583Y-122050828D02*
X139233083Y-121979400D01*
X139233083Y-121979400D02*
X139313440Y-121907971D01*
X139313440Y-121907971D02*
X139295583Y-122050828D01*
X139411654Y-121122257D02*
X139474154Y-121193685D01*
X139474154Y-121193685D02*
X139393797Y-121265114D01*
X139393797Y-121265114D02*
X139331297Y-121193685D01*
X139331297Y-121193685D02*
X139411654Y-121122257D01*
X139411654Y-121122257D02*
X139393797Y-121265114D01*
D12*
%TO.P,D2,1,K_1*%
%TO.N,Net-(D2-K)*%
X133270000Y-59500000D03*
D13*
%TO.P,D2,2,A_2*%
%TO.N,Net-(D2-A)*%
X135810000Y-59500000D03*
%TD*%
D14*
%TO.P,R3,1*%
%TO.N,Net-(D3-A)*%
X149500000Y-83190000D03*
%TO.P,R3,2*%
%TO.N,Net-(R1-Pad1)*%
X149500000Y-90810000D03*
%TD*%
%TO.P,R2,1*%
%TO.N,Net-(D2-A)*%
X141500000Y-83190000D03*
%TO.P,R2,2*%
%TO.N,Net-(R1-Pad1)*%
X141500000Y-90810000D03*
%TD*%
D15*
%TO.P,SW1,1,1_1*%
%TO.N,Net-(BT1-+)*%
X152750000Y-103750000D03*
X146250000Y-103750000D03*
%TO.P,SW1,2,2_2*%
%TO.N,Net-(R1-Pad1)*%
X152750000Y-99250000D03*
X146250000Y-99250000D03*
%TD*%
D14*
%TO.P,R4,1*%
%TO.N,Net-(Q3-B)*%
X133500000Y-83190000D03*
%TO.P,R4,2*%
%TO.N,Net-(R1-Pad1)*%
X133500000Y-90810000D03*
%TD*%
D12*
%TO.P,D3,1,K_1*%
%TO.N,Net-(D3-K)*%
X162230000Y-59500000D03*
D13*
%TO.P,D3,2,A_2*%
%TO.N,Net-(D3-A)*%
X164770000Y-59500000D03*
%TD*%
D16*
%TO.P,REF\u002A\u002A,1*%
%TO.N,N/C*%
X149500000Y-49000000D03*
%TD*%
D14*
%TO.P,R1,1*%
%TO.N,Net-(R1-Pad1)*%
X165500000Y-90810000D03*
%TO.P,R1,2*%
%TO.N,Net-(D1-A)*%
X165500000Y-83190000D03*
%TD*%
%TO.P,R5,1*%
%TO.N,Net-(Q4-B)*%
X157500000Y-83190000D03*
%TO.P,R5,2*%
%TO.N,Net-(R1-Pad1)*%
X157500000Y-90810000D03*
%TD*%
D12*
%TO.P,D1,1,K_1*%
%TO.N,GND*%
X147960000Y-72000000D03*
D13*
%TO.P,D1,2,A_2*%
%TO.N,Net-(D1-A)*%
X150500000Y-72000000D03*
%TD*%
D17*
%TO.P,C2,1*%
%TO.N,Net-(D2-K)*%
X148500000Y-79500000D03*
D14*
%TO.P,C2,2*%
%TO.N,Net-(Q4-B)*%
X150500000Y-79500000D03*
%TD*%
D18*
%TO.P,Q4,1,E_1*%
%TO.N,GND*%
X161960000Y-72000000D03*
D19*
%TO.P,Q4,2,B_2*%
%TO.N,Net-(Q4-B)*%
X163230000Y-72000000D03*
%TO.P,Q4,3,C_3*%
%TO.N,Net-(D3-K)*%
X164500000Y-72000000D03*
%TD*%
D20*
%TO.P,BT1,1,+_1*%
%TO.N,Net-(BT1-+)*%
X160050000Y-115500000D03*
X138950000Y-115500000D03*
%TD*%
D18*
%TO.P,Q3,1,E_1*%
%TO.N,GND*%
X133960000Y-72000000D03*
D19*
%TO.P,Q3,2,B_2*%
%TO.N,Net-(Q3-B)*%
X135230000Y-72000000D03*
%TO.P,Q3,3,C_3*%
%TO.N,Net-(D2-K)*%
X136500000Y-72000000D03*
%TD*%
D21*
%TO.P,C1,1*%
%TO.N,Net-(D3-K)*%
X150500000Y-63000000D03*
D14*
%TO.P,C1,2*%
%TO.N,Net-(Q3-B)*%
X148500000Y-63000000D03*
%TD*%
%TO.N,Net-(D2-K)*%
D22*
X132375000Y-83655991D02*
X132375000Y-60395000D01*
X136500000Y-72000000D02*
X141000000Y-72000000D01*
X141000000Y-72000000D02*
X148500000Y-79500000D01*
X132375000Y-60395000D02*
X133270000Y-59500000D01*
X136500000Y-72000000D02*
X136500000Y-81780991D01*
X136500000Y-81780991D02*
X133965991Y-84315000D01*
X133965991Y-84315000D02*
X133034009Y-84315000D01*
X133034009Y-84315000D02*
X132375000Y-83655991D01*
%TO.N,Net-(D2-A)*%
X134585000Y-58275000D02*
X132045000Y-58275000D01*
X132847613Y-84765000D02*
X139925000Y-84765000D01*
X135810000Y-59500000D02*
X134585000Y-58275000D01*
X131925000Y-83842387D02*
X132847613Y-84765000D01*
X132045000Y-58275000D02*
X131925000Y-58395000D01*
X131925000Y-58395000D02*
X131925000Y-83842387D01*
X139925000Y-84765000D02*
X141500000Y-83190000D01*
%TO.N,Net-(D3-A)*%
X149500000Y-83190000D02*
X151075000Y-84765000D01*
X167075000Y-61805000D02*
X164770000Y-59500000D01*
X167075000Y-83842387D02*
X167075000Y-61805000D01*
X151075000Y-84765000D02*
X166152387Y-84765000D01*
X166152387Y-84765000D02*
X167075000Y-83842387D01*
%TO.N,Net-(R1-Pad1)*%
X133500000Y-90810000D02*
X165500000Y-90810000D01*
X149500000Y-96000000D02*
X149500000Y-90810000D01*
X146250000Y-99250000D02*
X152750000Y-99250000D01*
X146250000Y-99250000D02*
X149500000Y-96000000D01*
%TO.N,Net-(BT1-+)*%
D23*
X138950000Y-115500000D02*
X149500000Y-115500000D01*
D22*
X152750000Y-103750000D02*
X149500000Y-103750000D01*
X149500000Y-103750000D02*
X146250000Y-103750000D01*
D23*
X149500000Y-115500000D02*
X160050000Y-115500000D01*
D22*
X149500000Y-103750000D02*
X149500000Y-115500000D01*
%TO.N,Net-(Q3-B)*%
X135230000Y-72000000D02*
X135230000Y-81460000D01*
X135230000Y-81460000D02*
X133500000Y-83190000D01*
X144005000Y-63000000D02*
X135230000Y-71775000D01*
X135230000Y-72270000D02*
X135230000Y-72500000D01*
X148500000Y-63000000D02*
X144005000Y-63000000D01*
X135230000Y-71775000D02*
X135230000Y-72000000D01*
X135230000Y-72275000D02*
X135230000Y-72500000D01*
%TO.N,Net-(D3-K)*%
X162230000Y-69230000D02*
X162230000Y-59500000D01*
X150500000Y-63000000D02*
X158730000Y-63000000D01*
X158730000Y-63000000D02*
X162230000Y-59500000D01*
X164500000Y-71500000D02*
X162230000Y-69230000D01*
X164500000Y-72000000D02*
X164500000Y-71500000D01*
%TO.N,Net-(D1-A)*%
X165500000Y-83000000D02*
X161500000Y-83000000D01*
X161500000Y-83000000D02*
X150500000Y-72000000D01*
X165500000Y-83190000D02*
X165500000Y-83000000D01*
%TO.N,Net-(Q4-B)*%
X163230000Y-72225000D02*
X163230000Y-72000000D01*
X166625000Y-83655991D02*
X166625000Y-75620000D01*
X157500000Y-83190000D02*
X158625000Y-84315000D01*
X157500000Y-83190000D02*
X157500000Y-80270000D01*
X165965991Y-84315000D02*
X166625000Y-83655991D01*
X158625000Y-84315000D02*
X165965991Y-84315000D01*
X157500000Y-80270000D02*
X156730000Y-79500000D01*
X166625000Y-75620000D02*
X163230000Y-72225000D01*
X156730000Y-79500000D02*
X150500000Y-79500000D01*
%TD*%
M02*
